<?xml version="1.0" encoding="utf-8"?>
<!-- Generator: Adobe Illustrator 20.0.0, SVG Export Plug-In . SVG Version: 6.00 Build 0)  -->
<svg version="1.1" id="Layer_1" xmlns="http://www.w3.org/2000/svg" xmlns:xlink="http://www.w3.org/1999/xlink" x="0px" y="0px"
	 viewBox="0 0 495.9 412.6" style="enable-background:new 0 0 495.9 412.6;" xml:space="preserve">
<style type="text/css">
	.st0{fill:#F78819;}
</style>
<g>
	<rect y="0" class="st0" width="41.3" height="41.3"/>
</g>
<g>
	<rect x="41.3" y="0" class="st0" width="41.3" height="41.3"/>
</g>
<g>
	<rect y="41.3" class="st0" width="41.3" height="41.3"/>
</g>
<g>
	<rect x="41.3" y="41.3" class="st0" width="41.3" height="41.3"/>
</g>
<g>
	<rect x="82.6" y="0" class="st0" width="41.3" height="41.3"/>
</g>
<g>
	<rect x="124" y="0" class="st0" width="41.3" height="41.3"/>
</g>
<g>
	<rect x="82.6" y="41.3" class="st0" width="41.3" height="41.3"/>
</g>
<g>
	<rect x="124" y="41.3" class="st0" width="41.3" height="41.3"/>
</g>
<g>
	<rect x="165.3" y="0" class="st0" width="41.3" height="41.3"/>
</g>
<g>
	<rect x="206.6" y="0" class="st0" width="41.3" height="41.3"/>
</g>
<g>
	<rect x="165.3" y="41.3" class="st0" width="41.3" height="41.3"/>
</g>
<g>
	<rect x="206.6" y="41.3" class="st0" width="41.3" height="41.3"/>
</g>
<g>
	<rect x="247.9" y="0" class="st0" width="41.3" height="41.3"/>
</g>
<g>
	<rect x="289.3" y="0" class="st0" width="41.3" height="41.3"/>
</g>
<g>
	<rect x="247.9" y="41.3" class="st0" width="41.3" height="41.3"/>
</g>
<g>
	<rect x="289.3" y="41.3" class="st0" width="41.3" height="41.3"/>
</g>
<g>
	<rect x="330.6" class="st0" width="41.3" height="41.3"/>
</g>
<g>
	<rect x="371.9" class="st0" width="41.3" height="41.3"/>
</g>
<g>
	<rect x="330.6" y="41.3" class="st0" width="41.3" height="41.3"/>
</g>
<g>
	<rect x="371.9" y="41.3" class="st0" width="41.3" height="41.3"/>
</g>
<g>
	<rect x="413.2" class="st0" width="41.3" height="41.3"/>
</g>
<g>
	<rect x="454.5" class="st0" width="41.3" height="41.3"/>
</g>
<g>
	<rect x="413.2" y="41.3" class="st0" width="41.3" height="41.3"/>
</g>
<g>
	<rect x="454.5" y="41.3" class="st0" width="41.3" height="41.3"/>
</g>
<g>
	<rect x="165.3" y="206.6" class="st0" width="41.3" height="41.3"/>
</g>
<g>
	<rect x="165.3" y="165.3" class="st0" width="41.3" height="41.3"/>
</g>
<g>
	<rect x="206.6" y="206.6" class="st0" width="41.3" height="41.3"/>
</g>
<g>
	<rect x="206.6" y="165.3" class="st0" width="41.3" height="41.3"/>
</g>
<g>
	<rect x="165.3" y="124" class="st0" width="41.3" height="41.3"/>
</g>
<g>
	<rect x="165.3" y="82.6" class="st0" width="41.3" height="41.3"/>
</g>
<g>
	<rect x="206.6" y="124" class="st0" width="41.3" height="41.3"/>
</g>
<g>
	<rect x="206.6" y="82.6" class="st0" width="41.3" height="41.3"/>
</g>
<g>
	<rect x="248" y="206.6" class="st0" width="41.3" height="41.3"/>
</g>
<g>
	<rect x="248" y="165.3" class="st0" width="41.3" height="41.3"/>
</g>
<g>
	<rect x="289.3" y="206.6" class="st0" width="41.3" height="41.3"/>
</g>
<g>
	<rect x="289.3" y="165.3" class="st0" width="41.3" height="41.3"/>
</g>
<g>
	<rect x="248" y="124" class="st0" width="41.3" height="41.3"/>
</g>
<g>
	<rect x="248" y="82.6" class="st0" width="41.3" height="41.3"/>
</g>
<g>
	<rect x="289.3" y="124" class="st0" width="41.3" height="41.3"/>
</g>
<g>
	<rect x="289.3" y="82.6" class="st0" width="41.3" height="41.3"/>
</g>
<g>
	<rect x="165.3" y="371.3" class="st0" width="41.3" height="41.3"/>
</g>
<g>
	<rect x="165.3" y="329.9" class="st0" width="41.3" height="41.3"/>
</g>
<g>
	<rect x="206.6" y="371.3" class="st0" width="41.3" height="41.3"/>
</g>
<g>
	<rect x="206.6" y="329.9" class="st0" width="41.3" height="41.3"/>
</g>
<g>
	<rect x="165.3" y="288.6" class="st0" width="41.3" height="41.3"/>
</g>
<g>
	<rect x="165.3" y="247.3" class="st0" width="41.3" height="41.3"/>
</g>
<g>
	<rect x="206.6" y="288.6" class="st0" width="41.3" height="41.3"/>
</g>
<g>
	<rect x="206.6" y="247.3" class="st0" width="41.3" height="41.3"/>
</g>
<g>
	<rect x="247.9" y="371.3" class="st0" width="41.3" height="41.3"/>
</g>
<g>
	<rect x="247.9" y="329.9" class="st0" width="41.3" height="41.3"/>
</g>
<g>
	<rect x="289.3" y="371.3" class="st0" width="41.3" height="41.3"/>
</g>
<g>
	<rect x="289.3" y="329.9" class="st0" width="41.3" height="41.3"/>
</g>
<g>
	<rect x="247.9" y="288.6" class="st0" width="41.3" height="41.3"/>
</g>
<g>
	<rect x="247.9" y="247.3" class="st0" width="41.3" height="41.3"/>
</g>
<g>
	<rect x="289.3" y="288.6" class="st0" width="41.3" height="41.3"/>
</g>
<g>
	<rect x="289.3" y="247.3" class="st0" width="41.3" height="41.3"/>
</g>
</svg>
