<?xml version="1.0" encoding="utf-8"?>
<!-- Generator: Adobe Illustrator 20.0.0, SVG Export Plug-In . SVG Version: 6.00 Build 0)  -->
<svg version="1.1" id="Layer_1" xmlns="http://www.w3.org/2000/svg" xmlns:xlink="http://www.w3.org/1999/xlink" x="0px" y="0px"
	 viewBox="0 0 88 168" style="enable-background:new 0 0 88 168;" xml:space="preserve">
<style type="text/css">
	.st0{fill:#cf0029;}
	.st1{fill:none;stroke:#cf0029;stroke-miterlimit:10;}
</style>
<g>
	<g>
		<g>
			<path class="st0" d="M-315.7,223c2.4,0.7,6.5,0.7,8-1.8c1.7-2.9-0.9-5.6-3.5-6.6c-2.6-1-5.5-0.9-7.4,1.4
				C-320.9,218.8-318.4,221.9-315.7,223c1.2,0.5,2.8-0.6,3.1-1.7c0.4-1.4-0.5-2.6-1.7-3.1c-0.3-0.1-0.1-0.3-0.1-0.1
				c-0.1,0.4-0.2,0.8-0.3,1.3c0.1-0.2,0.2-0.4,0.4-0.4c0.7-0.1,1.4,0.5,2,0.6c0,0,0.3,0.3,0.3,0.3c0.2-0.5,0.3-1,0.5-1.6
				c-0.1,0-0.2,0-0.4,0c-0.8-0.2-1.6,0.1-2.4-0.1C-317.5,217.3-318.8,222.1-315.7,223z"/>
		</g>
	</g>
	<g>
		<g>
			<g>
				<path class="st0" d="M-337.8,250.5c-8.2-0.3-15.5,2.1-23.1,5c-5.7,2.2-11.9,6-12.5,12.8c-0.5,6.1,4.5,10.4,10.1,11.7
					c8.4,2,18.4,0.8,27,0.9c9.4,0.1,35,4.5,34.1-11.7c-0.3-6.7-5.7-11.1-11.4-13.5C-321.1,252.6-329.7,250.7-337.8,250.5
					c-3.2-0.1-3.2,4.9,0,5c5.6,0.1,11,1.3,16.4,2.9c5.1,1.5,12.1,3.4,13.8,9.2c2.2,7.4-5.4,8.6-10.8,8.6c-5.9,0-11.9-0.1-17.8-0.2
					c-5.7-0.1-11.5-0.1-17.2-0.2c-4.9-0.1-16.8,0-14.7-8.2c1.6-6.1,10.5-8,15.7-9.8c4.9-1.7,9.5-2.4,14.6-2.3
					C-334.6,255.6-334.6,250.6-337.8,250.5L-337.8,250.5z"/>
			</g>
		</g>
		<g>
			<g>
				<path class="st0" d="M-373.3,270.6c-1,13.3,3.6,25.6,6.2,38.5c3.1,14.8,4.3,30,8,44.7c0.8,3.1,5.6,1.8,4.8-1.3
					c-3.5-14.1-4.8-28.6-7.6-42.9c-2.6-13-7.4-25.5-6.4-39C-368.1,267.4-373.1,267.4-373.3,270.6L-373.3,270.6z"/>
			</g>
		</g>
		<g>
			<g>
				<path class="st0" d="M-306.8,270.6c-0.9,13.8-2.3,27.4-6,40.8c-3.8,13.7-5.3,27.5-6.1,41.7c-0.2,3.2,4.8,3.2,5,0
					c0.9-15,3-29.2,6.9-43.7c3.4-12.6,4.5-25.7,5.3-38.7C-301.6,267.4-306.6,267.4-306.8,270.6L-306.8,270.6z"/>
			</g>
		</g>
		<g>
			<g>
				<path class="st0" d="M-320.2,218.6c0.4,12.2-2.6,24-5.2,35.8c-2.4,10.8-4.6,21.8-6.5,32.7c-3.8,21.6-6.8,43.3-9.3,65
					c-0.4,3.2,4.6,3.2,5,0c2.7-22.5,5.8-44.9,9.8-67.2c1.9-10.7,4.1-21.4,6.5-32c2.6-11.3,5.2-22.7,4.8-34.4
					C-315.3,215.4-320.3,215.4-320.2,218.6L-320.2,218.6z"/>
			</g>
		</g>
		<g>
			<g>
				<path class="st0" d="M-311.4,220.3c-1.1,22.9-7.2,45-11.6,67.4c-4.2,21.7-7.8,43.5-10.4,65.4c-0.4,3.2,4.6,3.2,5,0
					c2.7-22.7,6.5-45.3,10.9-67.7c4.3-21.6,10-43,11-65.1C-306.2,217.1-311.2,217.1-311.4,220.3L-311.4,220.3z"/>
			</g>
		</g>
		<g>
			<g>
				<path class="st0" d="M-341.6,354c1,1.9,3.3,2.2,5.2,2.6c2.1,0.5,4.2,0.6,6.2-0.5c2.8-1.6,0.3-5.9-2.5-4.3
					c-0.7,0.4-1.6,0.2-2.3,0c-0.5-0.1-0.9-0.2-1.4-0.4c-0.3-0.1-1.1-0.6-0.8,0C-338.8,348.6-343.1,351.2-341.6,354L-341.6,354z"/>
			</g>
		</g>
		<g>
			<g>
				<path class="st0" d="M-325.3,261.9c2.6,2.5,6,3.4,9.5,2.7c3.1-0.7,1.8-5.5-1.3-4.8c-1.7,0.4-3.4-0.2-4.6-1.4
					C-324,256.1-327.6,259.7-325.3,261.9L-325.3,261.9z"/>
			</g>
		</g>
		<g>
			<g>
				<path class="st0" d="M-325.6,266c2.5,1.5,5.2,2.3,8.1,2.4c3.2,0.1,3.2-4.9,0-5c-2-0.1-3.9-0.7-5.6-1.7
					C-325.8,260-328.4,264.3-325.6,266L-325.6,266z"/>
			</g>
		</g>
		<g>
			<g>
				<path class="st0" d="M-363.1,289.2c9.6,5.5,20.4,7.3,31.3,7.7c8.4,0.3,20.3,1.7,23.9-7.9c1.1-3-3.7-4.3-4.8-1.3
					c-2.6,7-18.1,4.5-24,4c-8.4-0.7-16.5-2.5-23.8-6.7C-363.3,283.3-365.9,287.6-363.1,289.2L-363.1,289.2z"/>
			</g>
		</g>
		<g>
			<g>
				<path class="st0" d="M-360.2,286.8c9.6-0.7,19.3-1.2,28.9-1.6c3.2-0.1,3.2-5.1,0-5c-9.6,0.3-19.3,0.9-28.9,1.6
					C-363.4,282-363.4,287-360.2,286.8L-360.2,286.8z"/>
			</g>
		</g>
		<g>
			<g>
				<path class="st0" d="M-318.3,286.3c2.3,0.5,4.2,1.6,5.8,3.4c0.9,1,2.6,0.9,3.5,0c1-1,0.9-2.5,0-3.5c-2-2.4-4.9-4.1-8-4.7
					C-320.1,280.8-321.5,285.6-318.3,286.3L-318.3,286.3z"/>
			</g>
		</g>
		<g>
			<g>
				<path class="st0" d="M-364.9,289.6c7.7,20.7,8.8,42.8,11,64.6c0.3,3.2,5.3,3.2,5,0c-2.2-22.2-3.3-44.8-11.1-65.9
					C-361.2,285.3-366,286.6-364.9,289.6L-364.9,289.6z"/>
			</g>
		</g>
		<g>
			<g>
				<path class="st0" d="M-313.1,288.5c-1,10.6-4,21.2-5.8,31.7c-1.9,10.9-3.7,21.8-5.6,32.7c-0.5,3.1,4.3,4.5,4.8,1.3
					c2-11.5,3.9-23,5.9-34.5c1.8-10.4,4.7-20.7,5.7-31.2C-307.8,285.3-312.8,285.4-313.1,288.5L-313.1,288.5z"/>
			</g>
		</g>
		<g>
			<g>
				<path class="st0" d="M-352,357.9c9.1,1.9,22.7,5.1,30.7-1.2c2.5-2-1-5.5-3.5-3.5c-3.3,2.6-8.5,2-12.4,1.8
					c-4.5-0.2-9-0.9-13.4-1.9C-353.8,352.4-355.2,357.2-352,357.9L-352,357.9z"/>
			</g>
		</g>
		<g>
			<g>
				<path class="st0" d="M-349.5,356.4c2.1-1.7,4.7-2.7,7.4-2.8c3.2-0.2,3.2-5.2,0-5c-4.1,0.3-7.7,1.7-10.9,4.3
					C-355.6,354.9-352,358.4-349.5,356.4L-349.5,356.4z"/>
			</g>
		</g>
		<g>
			<g>
				<path class="st0" d="M-322.5,351.3c-2.5-1-5-2-7.4-3c-1.3-0.5-2.7,0.5-3.1,1.7c-0.4,1.4,0.5,2.6,1.7,3.1c2.5,1,5,2,7.4,3
					c1.3,0.5,2.7-0.5,3.1-1.7C-320.3,353-321.2,351.8-322.5,351.3L-322.5,351.3z"/>
			</g>
		</g>
		<g>
			<g>
				<path class="st0" d="M-341.7,352.6c0.3,0,0.7,0,1,0c1.3,0,2.6-1.1,2.5-2.5c-0.1-1.4-1.1-2.5-2.5-2.5c-0.3,0-0.7,0-1,0
					c-1.3,0-2.6,1.1-2.5,2.5C-344.2,351.5-343.1,352.6-341.7,352.6L-341.7,352.6z"/>
			</g>
		</g>
		<g>
			<g>
				<path class="st0" d="M-353.1,311.3c1.9,0.7,3.7-0.4,5.4-1.2c1.8-0.8,3.6-1.7,5.3-2.8c2.8-1.7,0.2-6-2.5-4.3
					c-1.2,0.7-2.3,1.4-3.6,2c-0.5,0.2-2.8,1.6-3.3,1.4C-354.8,305.4-356.1,310.2-353.1,311.3L-353.1,311.3z"/>
			</g>
		</g>
		<g>
			<g>
				<path class="st0" d="M-344.7,306.6c1.8,1.9,3.3,3.9,4.7,6.1c1.7,2.7,6,0.2,4.3-2.5c-1.6-2.5-3.4-4.9-5.5-7.1
					C-343.4,300.7-346.9,304.2-344.7,306.6L-344.7,306.6z"/>
			</g>
		</g>
		<g>
			<g>
				<path class="st0" d="M-339.5,311.8c0.3-0.4,0.3-0.5-0.2-0.2c-0.4,0.1-0.9,0.3-1.3,0.4c-0.8,0.3-1.7,0.6-2.5,1
					c-1.7,0.7-3.2,1.6-4.7,2.6c-2.7,1.8-0.2,6.1,2.5,4.3c2.1-1.4,4.3-2.5,6.7-3.3c2-0.6,3.7-1.3,4.4-3.5
					C-333.7,310-338.6,308.7-339.5,311.8L-339.5,311.8z"/>
			</g>
		</g>
		<g>
			<g>
				<path class="st0" d="M-354.9,309.4c-0.6,4.2,3.1,8.8,5.9,11.7c2.2,2.3,5.8-1.2,3.5-3.5c-1.1-1.1-2-2.3-2.8-3.6
					c-0.4-0.6-0.7-1.2-1.1-1.9c-0.2-0.4-0.4-0.7-0.5-1.1c-0.1-0.6-0.2-0.7-0.2-0.2c0.2-1.3-0.3-2.7-1.7-3.1
					C-352.9,307.3-354.7,308.1-354.9,309.4L-354.9,309.4z"/>
			</g>
		</g>
		<g>
			<g>
				<path class="st0" d="M-340.1,313.7c0,2.1,0.5,4,1.4,5.9c0.6,1.2,2.3,1.6,3.4,0.9c1.2-0.7,1.5-2.2,0.9-3.4
					c-0.6-1.1-0.7-2.1-0.7-3.3C-335,310.4-340,310.4-340.1,313.7L-340.1,313.7z"/>
			</g>
		</g>
		<g>
			<g>
				<path class="st0" d="M-350.1,319.7c0,1.3,0.4,2.6,1,3.8c0.6,1.2,2.3,1.6,3.4,0.9c1.2-0.8,1.5-2.2,0.9-3.4
					c-0.1-0.1-0.1-0.2-0.2-0.3c0,0.1,0.1,0.2,0.1,0.3c-0.1-0.1-0.2-0.5-0.2-0.6c0-0.1-0.2-0.7-0.1-0.3c0,0.2,0,0.2,0,0
					c0-0.1,0-0.2,0-0.3c0-1.3-1.1-2.6-2.5-2.5C-348.9,317.3-350.2,318.3-350.1,319.7L-350.1,319.7z"/>
			</g>
		</g>
		<g>
			<g>
				<path class="st0" d="M-345.2,325.8c3.1-1.6,6.2-3.2,9.4-4.7c2.9-1.5,0.3-5.8-2.5-4.3c-3.1,1.6-6.2,3.2-9.4,4.7
					C-350.6,322.9-348.1,327.2-345.2,325.8L-345.2,325.8z"/>
			</g>
		</g>
		<g>
			<g>
				<path class="st0" d="M-355.4,312.6c0.5,1.4,0.8,2.8,1,4.3c0.1,1.2,0,2.4,0.5,3.5c0.9,2,3.6,3.1,5.4,4.3c2.7,1.8,5.2-2.6,2.5-4.3
					c-0.8-0.5-1.6-1-2.4-1.5c-1-0.7-1.1-0.4-1-1.5c0.1-2-0.6-4.2-1.2-6C-351.6,308.3-356.4,309.6-355.4,312.6L-355.4,312.6z"/>
			</g>
		</g>
		<g>
			<g>
				<path class="st0" d="M-348.7,336.5c3-2.2,6.1-4.3,9.2-6.2c2.7-1.7,0.2-6-2.5-4.3c-3.1,2-6.2,4.1-9.2,6.2
					C-353.8,334.1-351.3,338.4-348.7,336.5L-348.7,336.5z"/>
			</g>
		</g>
		<g>
			<g>
				<path class="st0" d="M-342.3,328.9c0.3,0.6,0.6,1.2,0.9,1.8c0.2,0.5,0.6,1.3,0.7,1.5c0.5,1.2,1.7,2.2,3.1,1.7
					c1.2-0.4,2.3-1.8,1.7-3.1c-0.6-1.5-1.3-3-2.1-4.5c-0.6-1.1-2.3-1.6-3.4-0.9C-342.6,326.2-343,327.7-342.3,328.9L-342.3,328.9z"
					/>
			</g>
		</g>
		<g>
			<g>
				<path class="st0" d="M-353.4,336.6c1.6,2.5,3.1,5,4.3,7.7c0.6,1.2,2.3,1.5,3.4,0.9c1.3-0.7,1.5-2.2,0.9-3.4
					c-1.2-2.7-2.7-5.3-4.3-7.7C-350.8,331.4-355.2,333.9-353.4,336.6L-353.4,336.6z"/>
			</g>
		</g>
		<g>
			<g>
				<path class="st0" d="M-344,345.9c1.8-2,3.8-3.6,6.3-4.7c1.2-0.5,1.5-2.3,0.9-3.4c-0.7-1.3-2.2-1.4-3.4-0.9
					c-2.8,1.2-5.3,3.1-7.3,5.4C-349.6,344.8-346.1,348.4-344,345.9L-344,345.9z"/>
			</g>
		</g>
		<g>
			<g>
				<path class="st0" d="M-341.1,328.5c1,0.9,2,1.5,3.3,1.9c1.2,0.4,2.8-0.5,3.1-1.7c0.3-1.4-0.4-2.6-1.7-3.1
					c-0.1,0-0.2-0.1-0.3-0.1c0.3,0.2,0.4,0.2,0.2,0.1c-0.1-0.1-0.3-0.1-0.4-0.2c-0.1-0.1-0.3-0.2-0.4-0.3c-0.2-0.2-0.2-0.1,0.1,0.1
					c-0.1-0.1-0.2-0.1-0.2-0.2c-1-0.9-2.6-1-3.5,0C-342,325.9-342.1,327.6-341.1,328.5L-341.1,328.5z"/>
			</g>
		</g>
		<g>
			<g>
				<path class="st0" d="M-345.7,347.5c2.4,0.2,4.7,0.2,7.1,0.1c3.2-0.1,3.2-5.1,0-5c-2.4,0.1-4.8,0.1-7.1-0.1
					C-348.9,342.2-348.9,347.2-345.7,347.5L-345.7,347.5z"/>
			</g>
		</g>
		<g>
			<g>
				<path class="st0" d="M-365,270.9c7.6-5.5,15.5-10.7,25.2-10.6c3.2,0,3.2-5,0-5c-10.6-0.1-19.4,5.3-27.7,11.3
					C-370.1,268.4-367.6,272.7-365,270.9L-365,270.9z"/>
			</g>
		</g>
		<g>
			<g>
				<path class="st0" d="M-339.8,347.4c-6.2,0-12.2,1.4-17.8,4.1c-2.9,1.4-0.4,5.7,2.5,4.3c4.8-2.4,9.9-3.5,15.2-3.4
					C-336.6,352.4-336.6,347.4-339.8,347.4L-339.8,347.4z"/>
			</g>
		</g>
		<g>
			<g>
				<path class="st0" d="M-359,355.7c3.9,6.9,14.8,8.5,22,8.9c8.7,0.5,16.7-2.7,22.3-9.4c2.1-2.4-1.5-6-3.5-3.5
					c-4.4,5.2-10.1,7.9-17,8c-5.3,0-16.6-1.3-19.6-6.5C-356.2,350.4-360.6,352.9-359,355.7L-359,355.7z"/>
			</g>
		</g>
		<g>
			<g>
				<path class="st0" d="M-316,350.6c-3.7-2.8-8.4-3.8-12.9-3.9c-3.2-0.1-3.2,4.9,0,5c3.7,0.1,7.4,1,10.4,3.3
					C-316,356.9-313.5,352.6-316,350.6L-316,350.6z"/>
			</g>
		</g>
	</g>
</g>
<g>
	<g>
		<g>
			<path class="st0" d="M-379.4,508.3c3.7,6.9,7.6,14.1,13.7,19.3c6.3,5.4,13.7,7,21.9,7c7.9,0,15.2-0.6,21.3-6.1
				c6.5-5.9,9.3-14.5,11.9-22.6c1-3.1-3.9-4.4-4.8-1.3c-2.1,6.8-4.3,14.1-9.5,19.4c-5.6,5.8-13.1,5.9-20.7,5.7
				c-15.5-0.3-22.9-11.3-29.5-23.8C-376.6,502.9-380.9,505.5-379.4,508.3L-379.4,508.3z"/>
		</g>
	</g>
	<g>
		<g>
			<path class="st0" d="M-377.2,507.1c21,0,42,0,63,0c3.2,0,3.2-5,0-5c-21,0-42,0-63,0C-380.4,502.1-380.4,507.1-377.2,507.1
				L-377.2,507.1z"/>
		</g>
	</g>
	<g>
		<g>
			<path class="st0" d="M-345.2,532.5c0,7.9,0,15.8,0,23.8c0,3.2,5,3.2,5,0c0-7.9,0-15.8,0-23.8
				C-340.2,529.3-345.2,529.3-345.2,532.5L-345.2,532.5z"/>
		</g>
	</g>
	<g>
		<g>
			<path class="st0" d="M-351.2,564.7c5.7-3.8,12.7-4.1,18.6-0.5c2.8,1.7,5.3-2.7,2.5-4.3c-7.4-4.4-16.5-4.3-23.7,0.5
				C-356.3,562.2-353.8,566.5-351.2,564.7L-351.2,564.7z"/>
		</g>
	</g>
	<g>
		<g>
			<path class="st0" d="M-351.3,565.6c6.7,0,13.5,0,20.2,0c3.2,0,3.2-5,0-5c-6.7,0-13.5,0-20.2,0
				C-354.5,560.6-354.5,565.6-351.3,565.6L-351.3,565.6z"/>
		</g>
	</g>
	<g>
		<g>
			<path class="st0" d="M-376,502.3c-0.3-8.6,10.8-12.9,17.9-11.3c6.7,1.5,11.9,6.5,16.8,11c2.4,2.2,5.9-1.3,3.5-3.5
				c-7.1-6.6-15.3-13.7-25.6-12.8c-8.4,0.7-17.9,7.4-17.6,16.6C-380.9,505.5-375.9,505.5-376,502.3L-376,502.3z"/>
		</g>
	</g>
	<g>
		<g>
			<path class="st0" d="M-353.1,489.2c2.2-2.2,8.6-1.8,11.6-1.9c3.5-0.1,7.2-0.2,10.5,0.9c5.7,1.8,12.6,9.3,14.2,15
				c0.9,3.1,5.7,1.8,4.8-1.3c-2.2-7.5-10.2-16.1-17.7-18.4c-4.6-1.4-9.8-1.3-14.5-1c-4,0.3-9.5,0.2-12.5,3.2
				C-358.9,487.9-355.4,491.4-353.1,489.2L-353.1,489.2z"/>
		</g>
	</g>
	<g>
		<g>
			<path class="st0" d="M-368.1,488.1c2-14.4,24.9-19.8,33.1-7.7c1.8,2.7,6.1,0.2,4.3-2.5c-10.3-15.3-39.5-10.2-42.2,8.9
				C-373.4,489.9-368.6,491.3-368.1,488.1L-368.1,488.1z"/>
		</g>
	</g>
	<g>
		<g>
			<path class="st0" d="M-319,446.9c-3.2,12.5-6.5,25-9.7,37.5c-0.8,3.1,4,4.4,4.8,1.3c3.2-12.5,6.5-25,9.7-37.5
				C-313.3,445.1-318.2,443.8-319,446.9L-319,446.9z"/>
		</g>
	</g>
	<g>
		<g>
			<path class="st0" d="M-317.3,448.3c5,4,10,7.9,15,11.9c2.5,2,6.1-1.5,3.5-3.5c-5-4-10-7.9-15-11.9
				C-316.3,442.8-319.9,446.3-317.3,448.3L-317.3,448.3z"/>
		</g>
	</g>
	<g>
		<g>
			<path class="st0" d="M-298.3,458.3c-0.1,0-0.2-0.1-0.3-0.1c-0.9-0.3-1.8,0.1-2.4,0.6c-1.6,1.5-2.4,4.1-3.4,6.1
				c-1.6,3.2-3.2,6.4-4.9,9.5c-3.2,6-6.4,12-9.7,18c-1.6,2.8,2.7,5.3,4.3,2.5c3-5.4,6-10.8,8.8-16.2c1.4-2.6,2.7-5.2,4-7.8
				c1.2-2.4,2.4-6.7,4.4-8.5c-0.8,0.2-1.6,0.4-2.4,0.6c0.1,0,0.2,0.1,0.3,0.1C-296.6,464.2-295.3,459.4-298.3,458.3L-298.3,458.3z"
				/>
		</g>
	</g>
	<g>
		<g>
			<path class="st0" d="M-317.3,463.5c3-1.2,6.1-2.4,9.1-3.6c1.3-0.5,2.1-1.7,1.7-3.1c-0.3-1.2-1.8-2.2-3.1-1.7
				c-3,1.2-6.1,2.4-9.1,3.6c-1.3,0.5-2.1,1.7-1.7,3.1C-320.1,462.9-318.6,464-317.3,463.5L-317.3,463.5z"/>
		</g>
	</g>
	<g>
		<g>
			<path class="st0" d="M-319.1,470.4c4.6-1.9,9.3-3.8,13.9-5.7c2.9-1.2,1.7-6-1.3-4.8c-4.6,1.9-9.3,3.8-13.9,5.7
				C-323.4,466.7-322.1,471.6-319.1,470.4L-319.1,470.4z"/>
		</g>
	</g>
	<g>
		<g>
			<path class="st0" d="M-321.3,478.6c5.3-2.1,10.5-4.3,15.6-6.8c2.9-1.4,0.4-5.7-2.5-4.3c-4.7,2.3-9.5,4.4-14.4,6.3
				C-325.6,475-324.3,479.8-321.3,478.6L-321.3,478.6z"/>
		</g>
	</g>
	<g>
		<g>
			<path class="st0" d="M-321.1,484.8c3.5-1.9,7.2-3.5,11.1-4.6c3.1-0.9,1.8-5.8-1.3-4.8c-4.3,1.3-8.4,3-12.3,5.1
				C-326.5,482-324,486.3-321.1,484.8L-321.1,484.8z"/>
		</g>
	</g>
	<g>
		<g>
			<path class="st0" d="M-366.4,517.9c3.6,4.5,8.5,7.7,14.1,9.3c3.1,0.9,4.4-3.9,1.3-4.8c-4.8-1.4-8.8-4.1-11.9-8
				C-364.9,511.8-368.5,515.4-366.4,517.9L-366.4,517.9z"/>
		</g>
	</g>
</g>
<g>
	<g>
		<g>
			<path class="st0" d="M975.7,324.2c-9.2,9.6-13.1,23.9-13.9,37c-0.7,13.1,3,23.9,13.7,32c10.6,8,24.7,12,37.8,8.6
				c12.6-3.3,22-13.1,25.9-25.4c4.9-15.2,2.8-36.2-7.4-48.9c-2-2.5-5.5,1-3.5,3.5c10,12.5,11.1,35.4,4,49.4
				c-6.9,13.6-21.9,20.2-36.7,16.8c-13.7-3.1-27.2-12.7-28.6-27.6c-1.3-14,2.4-31.4,12.3-41.8C981.4,325.4,977.9,321.9,975.7,324.2
				L975.7,324.2z"/>
		</g>
	</g>
	<g>
		<g>
			<path class="st0" d="M989.1,311.6c-4.2-2.3-9.1-3.7-12.8-6.9c-0.8,1.4-1.6,2.8-2.4,4.2c4.2,0.9,8.9,1.3,12.7,3.3
				c1.8,0.9,4.5-0.6,3.7-2.8c-1.3-3.4-3.6-6.1-5.9-8.9c-0.8,1.4-1.6,2.8-2.4,4.2c5.3,1.3,10.5,4.5,14.6,8c1.7,1.5,5,0.1,4.2-2.4
				c-1.4-4.3-2.6-8.7-3.7-13.1c-1.2,0.9-2.4,1.9-3.7,2.8c4.2,2.4,7.6,5.9,11,9.2c0.6,0.6,1.6,1,2.4,0.6c4.7-1.9,8.6-4.9,12.6-8.1
				c-1.4-0.8-2.8-1.6-4.2-2.4c-0.7,3.6-1.3,7-3.4,10.1c-1.3,1.8,0.8,4.3,2.8,3.7c7.9-2.3,15.8-4.4,24.1-4.3
				c-0.4-1.6-0.8-3.1-1.3-4.7c-5.1,3.8-11.7,5.9-17.8,7.6c-2.8,0.8-2.1,4.7,0.7,4.9c8.3,0.6,15.9,2.1,23.6,5.1c0-1.6,0-3.2,0-4.8
				c-5.6,2.1-12.2-0.7-18-0.6c-2.2,0-3.3,2.7-1.8,4.3c3,3,6.6,5.7,7.8,9.9c1-1,2.1-2.1,3.1-3.1c-5.6-1.3-9.9-5.6-15.1-7.9
				c-2.2-1-4.7,1.1-3.4,3.4c1.2,2.3,1.9,4.6,2.4,7.2c1.5-0.6,3-1.3,4.6-1.9c-2.2-3.2-3.6-6.7-6.6-9.2c-1.7-1.4-4.1-0.5-4.3,1.8
				c-0.4,4.3,0.8,8.6,0.1,12.9c1.6,0,3.2,0,4.8,0c-0.8-5.8-2.1-12.3-6.8-16.2c-1.3-1-3.8-0.9-4.2,1.1c-0.6,3.6,1.1,9.5-1.3,12.5
				c1.4,0.4,2.8,0.7,4.2,1.1c-1.4-4.5-1.5-13.9-8.1-13.9c-7.1,0.1-10.7,9.8-12.4,15.3c1.6,0,3.2,0,4.8,0c-1.1-4.8-2.4-8.8,1.9-12.3
				c1.7-1.4,0.3-4.3-1.8-4.3c-6.5,0.2-10.1,5.4-15.9,7.3c1,0.6,2.1,1.2,3.1,1.7c-0.6-3.1,2.8-4.9,5-5.9c2.6-1.1,0.7-5.3-1.9-4.6
				c-4.9,1.3-11.6-0.3-16.6-1.1c0,1.6,0,3.2,0,4.8c6.6-1.3,13.4-2.8,20.2-3.2c3.2-0.2,3.2-5.2,0-5c-7.2,0.4-14.4,2-21.5,3.4
				c-2.3,0.5-2.4,4.5,0,4.8c5.9,0.9,13.3,2.7,19.2,1.1c-0.6-1.5-1.3-3-1.9-4.6c-4.8,2.1-8.4,6.1-7.3,11.5c0.2,1.3,1.9,2.1,3.1,1.7
				c5.1-1.7,9.1-7,14.6-7.1c-0.6-1.4-1.2-2.8-1.8-4.3c-5.8,4.7-4.6,10.6-3.1,17.2c0.6,2.5,4.1,2.3,4.8,0c0.7-2.4,3.8-12.1,7.4-11.6
				c2.3,0.4,2.9,8.3,3.4,10.1c0.5,1.6,2.9,2.6,4.2,1.1c3.7-4.6,1.7-9.4,2.6-14.7c-1.4,0.4-2.8,0.7-4.2,1.1c4.1,3.3,4.8,9.1,5.6,14
				c0.3,2.4,4.5,2.4,4.8,0c0.7-4.8-0.3-9.5,0.1-14.3c-1.4,0.6-2.8,1.2-4.3,1.8c2.7,2.2,3.9,5.4,5.8,8.2c1.7,2.4,5,0.9,4.6-1.9
				c-0.5-3-1.4-5.7-2.9-8.4c-1.1,1.1-2.3,2.3-3.4,3.4c5.6,2.4,10.2,7,16.3,8.4c1.8,0.4,3.6-1.2,3.1-3.1c-1.5-5.2-5.5-8.4-9.1-12.1
				c-0.6,1.4-1.2,2.8-1.8,4.3c6.3-0.1,13.1,2.8,19.3,0.4c2.4-0.9,2.3-3.9,0-4.8c-8.2-3.2-16.2-4.6-25-5.3c0.2,1.6,0.4,3.3,0.7,4.9
				c6.4-1.8,13.6-4,19-8.1c1.9-1.4,1.4-4.6-1.3-4.7c-8.7-0.1-17.1,2-25.4,4.4c0.9,1.2,1.9,2.4,2.8,3.7c2.3-3.4,3.1-7.3,3.9-11.3
				c0.5-2.5-2.2-4-4.2-2.4c-3.2,2.6-6.5,5.3-10.4,6.9c0.8,0.2,1.6,0.4,2.4,0.6c-3.8-3.6-7.5-7.4-12-10c-1.9-1.1-4.2,0.7-3.7,2.8
				c1.1,4.4,2.3,8.8,3.7,13.1c1.4-0.8,2.8-1.6,4.2-2.4c-4.7-4.2-10.6-7.8-16.8-9.3c-2.6-0.6-4,2.3-2.4,4.2c1.7,2.1,3.6,4.1,4.6,6.7
				c1.2-0.9,2.4-1.9,3.7-2.8c-4.3-2.3-9.2-2.8-13.9-3.8c-2.3-0.5-4.5,2.4-2.4,4.2c4.1,3.6,9.2,5.1,13.8,7.7
				C989.4,317.5,991.9,313.2,989.1,311.6L989.1,311.6z"/>
		</g>
	</g>
	<g>
		<g>
			<path class="st0" d="M969.4,344.2c9.8-8.7,22.9-12.9,35.1-17c3-1,1.7-5.9-1.3-4.8c-13.1,4.4-26.8,9-37.3,18.3
				C963.5,342.8,967,346.4,969.4,344.2L969.4,344.2z"/>
		</g>
	</g>
	<g>
		<g>
			<path class="st0" d="M967.5,355.1c15.7-7.3,30.5-16.4,46.4-23.2c3-1.3,0.4-5.6-2.5-4.3c-16,6.8-30.7,15.9-46.4,23.2
				C962.1,352.1,964.6,356.4,967.5,355.1L967.5,355.1z"/>
		</g>
	</g>
	<g>
		<g>
			<path class="st0" d="M967.9,365.2c4.9-3.1,10.2-5.3,15.3-7.8c5.1-2.5,9.9-5.8,15.1-8.2c5-2.4,10.2-4.6,15.2-7.1
				c5.7-2.8,10.7-6.8,16.8-8.7c3.1-1,1.7-5.8-1.3-4.8c-5.4,1.7-9.9,5-14.9,7.7c-5.4,2.9-11.1,5.4-16.7,7.9c-5.2,2.4-10,5.5-15.1,8.2
				c-5.6,2.9-11.5,5.2-16.9,8.6C962.7,362.6,965.2,366.9,967.9,365.2L967.9,365.2z"/>
		</g>
	</g>
	<g>
		<g>
			<path class="st0" d="M967.6,378.8c11.5-6.9,23.2-13.2,34.9-19.8c10.7-6,21-13.5,33.3-15.9c3.2-0.6,1.8-5.4-1.3-4.8
				c-12.2,2.3-22.5,9.6-33.2,15.6c-12.1,6.9-24.3,13.4-36.3,20.5C962.3,376.1,964.8,380.5,967.6,378.8L967.6,378.8z"/>
		</g>
	</g>
	<g>
		<g>
			<path class="st0" d="M974.1,389.2c11.2-5.8,21.7-12.9,32.6-19.2c10.2-5.9,20.2-12.7,31.7-15.9c3.1-0.8,1.8-5.7-1.3-4.8
				c-11.4,3.1-21.4,9.7-31.5,15.6c-11.4,6.6-22.3,13.9-34,20C968.7,386.4,971.3,390.7,974.1,389.2L974.1,389.2z"/>
		</g>
	</g>
	<g>
		<g>
			<path class="st0" d="M988.5,397.3c15.7-10.9,32-22.3,49.8-29.6c2.9-1.2,1.7-6-1.3-4.8c-18.2,7.4-34.9,18.9-51,30.1
				C983.3,394.9,985.8,399.2,988.5,397.3L988.5,397.3z"/>
		</g>
	</g>
	<g>
		<g>
			<path class="st0" d="M1005.9,399.6c4.4-4.3,10.1-6.9,15.3-10.2c5-3.1,9.8-6.1,15.2-8.5c2.9-1.3,0.4-5.6-2.5-4.3
				c-5.8,2.6-11,5.9-16.4,9.2c-5.2,3.2-10.7,5.9-15.1,10.2C1000.1,398.3,1003.6,401.8,1005.9,399.6L1005.9,399.6z"/>
		</g>
	</g>
	<g>
		<g>
			<path class="st0" d="M964.5,364.6c8.9,12,17.2,24.3,26.3,36.1c2,2.5,5.5-1,3.5-3.5c-8.9-11.4-16.9-23.4-25.5-35.1
				C966.9,359.5,962.6,362,964.5,364.6L964.5,364.6z"/>
		</g>
	</g>
	<g>
		<g>
			<path class="st0" d="M965.9,350.9c6.6,6.6,12.4,14.9,17.7,22.5c6.4,9.3,13.3,18.3,20.5,27c2.1,2.5,5.6-1.1,3.5-3.5
				c-7.7-9.3-14.6-19-21.6-28.8c-5.1-7-10.4-14.6-16.5-20.7C967.1,345.1,963.6,348.6,965.9,350.9L965.9,350.9z"/>
		</g>
	</g>
	<g>
		<g>
			<path class="st0" d="M970,338.3c8.7,9.6,16.8,19.7,24.7,30c7.6,9.9,16.9,18.3,24.7,28.1c2,2.5,5.5-1,3.5-3.5
				c-8.1-10.2-17.7-19-25.6-29.3c-7.6-9.8-15.4-19.5-23.7-28.7C971.4,332.4,967.8,335.9,970,338.3L970,338.3z"/>
		</g>
	</g>
	<g>
		<g>
			<path class="st0" d="M975.5,327.9c3.9,5.1,8.7,9.4,12.8,14.4c4.6,5.7,8.7,11.9,13.4,17.6c8.4,10.2,17.5,19.8,25.8,30.1
				c2,2.5,5.6-1.1,3.5-3.5c-8-9.9-16.7-19.1-24.8-28.9c-4.5-5.4-8.5-11.2-12.8-16.8c-4.2-5.4-9.4-9.9-13.6-15.4
				C977.9,322.9,973.6,325.4,975.5,327.9L975.5,327.9z"/>
		</g>
	</g>
	<g>
		<g>
			<path class="st0" d="M993.9,327.5c12.3,17.9,27.3,33.8,40.8,50.8c2,2.5,5.5-1,3.5-3.5c-13.2-16.6-28-32.3-40-49.8
				C996.4,322.4,992,324.9,993.9,327.5L993.9,327.5z"/>
		</g>
	</g>
	<g>
		<g>
			<path class="st0" d="M1010.4,327.7c7.5,12.8,17.3,24.3,26.1,36.2c1.9,2.6,6.2,0.1,4.3-2.5c-8.8-11.9-18.6-23.4-26.1-36.2
				C1013.1,322.4,1008.8,324.9,1010.4,327.7L1010.4,327.7z"/>
		</g>
	</g>
	<g>
		<g>
			<path class="st0" d="M1001.1,316.8c2.2-0.7,4.5-0.5,6.8-0.5c0-1.7,0-3.3,0-5c-2.6,0-5.2-0.1-7.7,0.7c-2.3,0.7-2.5,4.2,0,4.8
				c4,1,8.1,1.1,12.2,1c3.2-0.1,3.2-4.9,0-5c-2.3-0.1-4.6-0.5-6.8-0.8c0.2,1.5,0.4,3,0.6,4.6c1.1-0.5,2.6-0.3,3.8-0.2
				c0-1.7,0-3.3,0-5c-0.6,0-1.2,0-1.8,0c-3.2,0-3.2,5,0,5c0.6,0,1.2,0,1.8,0c3.2,0,3.2-4.9,0-5c-2.3,0-4.2,0-6.3,0.9
				c-1.8,0.9-1.5,4.3,0.6,4.6c2.7,0.4,5.4,0.9,8.2,1c0-1.7,0-3.3,0-5c-3.7,0.1-7.3,0.1-10.9-0.8c0,1.6,0,3.2,0,4.8
				c2.1-0.6,4.2-0.5,6.3-0.5c3.2,0,3.2-5,0-5c-2.8,0-5.5-0.2-8.2,0.7C996.8,313,998.1,317.8,1001.1,316.8L1001.1,316.8z"/>
		</g>
	</g>
</g>
<g>
	<g>
		<g>
			<path class="st0" d="M953.8,105c2.3,12.4,4.4,24.8,7,37.1c1.2,6,3.9,20.6,12.8,19.3c3.6-0.6,5.6-3.8,7.1-6.8
				c2.7-5.3,5.2-10.7,7.5-16.2c4.8-11.1,9-22.4,12.7-33.9c1-3.1-3.8-4.4-4.8-1.3c-2.8,8.9-6,17.7-9.5,26.4
				c-1.8,4.4-3.7,8.8-5.7,13.2c-1.6,3.5-3.2,9.6-6.2,12.2c-6.1,5.6-9.9-18.5-10.6-22.2c-1.8-9.7-3.6-19.4-5.4-29.1
				C958.1,100.5,953.2,101.8,953.8,105L953.8,105z"/>
		</g>
	</g>
	<g>
		<g>
			<path class="st0" d="M966.2,147.5c7-3.5,14-6.8,21.1-10.1c2.9-1.4,0.4-5.7-2.5-4.3c-7.1,3.3-14.1,6.7-21.1,10.1
				C960.8,144.6,963.4,148.9,966.2,147.5L966.2,147.5z"/>
		</g>
	</g>
	<g>
		<g>
			<path class="st0" d="M964.9,135.6c2.4-3.6,10.3-5.5,14.1-7.1c4.5-1.9,8.9-3.9,13-6.5c2.7-1.7,0.2-6-2.5-4.3
				c-5.1,3.2-10.6,5.5-16.2,7.9c-4.4,1.9-10,3.4-12.7,7.6C958.9,135.7,963.2,138.2,964.9,135.6L964.9,135.6z"/>
		</g>
	</g>
	<g>
		<g>
			<path class="st0" d="M961.6,121.3c10.7-4.6,21.6-8.5,32.6-12c3.1-1,1.8-5.8-1.3-4.8c-11.5,3.6-22.8,7.7-33.8,12.5
				C956.1,118.3,958.6,122.6,961.6,121.3L961.6,121.3z"/>
		</g>
	</g>
	<g>
		<g>
			<path class="st0" d="M961.7,138.4c6.2,2.7,12.1,6.1,17.3,10.4c2.5,2,6-1.5,3.5-3.5c-5.6-4.6-11.7-8.3-18.4-11.2
				C961.3,132.8,958.8,137.1,961.7,138.4L961.7,138.4z"/>
		</g>
	</g>
	<g>
		<g>
			<path class="st0" d="M958.9,121.5c4.8,0.3,8.7,3.3,12.6,5.8c4,2.7,8,5.5,11.8,8.4c2.5,2,6.1-1.6,3.5-3.5
				c-7.8-6.1-17.6-15.1-27.9-15.7C955.7,116.3,955.7,121.3,958.9,121.5L958.9,121.5z"/>
		</g>
	</g>
	<g>
		<g>
			<path class="st0" d="M962,110.3c4.8,0.5,9.4,3.9,13.6,6.2c4,2.2,8.1,4.4,12.1,6.6c2.8,1.5,5.3-2.8,2.5-4.3
				c-5.2-2.8-10.4-5.7-15.5-8.5c-4.1-2.3-7.9-4.5-12.7-5C958.8,105,958.8,110,962,110.3L962,110.3z"/>
		</g>
	</g>
	<g>
		<g>
			<path class="st0" d="M975.6,105.6c5.8,1.1,11.1,3.4,15.7,7.3c2.4,2.1,6-1.4,3.5-3.5c-5.2-4.4-11.2-7.3-17.9-8.6
				C973.8,100.2,972.5,105,975.6,105.6L975.6,105.6z"/>
		</g>
	</g>
	<g>
		<g>
			<path class="st0" d="M969.4,54.6c-10.1,3.1-19.2,9.5-24.1,19c-4.1,7.8-6.7,21.3-0.5,28.8c6.5,7.7,18.9,5.8,27.6,4.4
				c7-1.1,14.2-2.6,21.3-1.2c5.4,1,10.2,3,15.7,1.4c3.1-0.9,1.8-5.7-1.3-4.8c-5,1.5-9.8-0.9-14.8-1.7c-4.3-0.6-8.5-0.4-12.8,0.1
				c-8.6,1-18.2,4.2-26.8,1.6c-10.6-3.2-8.1-18.4-4.2-26c4.3-8.4,12.3-14,21.1-16.7C973.8,58.4,972.5,53.6,969.4,54.6L969.4,54.6z"
				/>
		</g>
	</g>
	<g>
		<g>
			<path class="st0" d="M971.6,59.6c11.3-5.5,22.5,2.9,28.8,11.8c2.9,4.1,6.3,8.8,7.7,13.7c1.2,4.3,2.6,14.5-1.2,17.9
				c-2.4,2.1,1.1,5.7,3.5,3.5c4.8-4.3,4-13.7,3.2-19.5c-1.1-7.2-5.6-13.7-9.8-19.5c-8-10.8-21.4-18.8-34.8-12.3
				C966.2,56.7,968.7,61,971.6,59.6L971.6,59.6z"/>
		</g>
	</g>
	<g>
		<g>
			<path class="st0" d="M957,59.3c-4.9-1.8-5.3-9.6-2.9-13.4c2.7-4.2,8.2-4.8,12.8-4.9c3.6-0.1,8.1-0.6,11.1,1.8
				c3.7,2.9,4.9,7.9,4.6,12.3c-0.2,3.2,4.8,3.2,5,0c0.5-6.3-2-13.3-7.4-16.9c-5.3-3.5-15.1-2.7-21-1.2c-6.4,1.7-10.8,6-11.3,12.8
				c-0.4,6.3,1.5,12.2,7.8,14.4C958.7,65.2,960,60.4,957,59.3L957,59.3z"/>
		</g>
	</g>
	<g>
		<g>
			<path class="st0" d="M997.6,33.6c2.4,2.6,6,3.4,9.4,2.8c3.2-0.6,1.8-5.4-1.3-4.8c-1.7,0.3-3.4-0.2-4.5-1.5
				C998.9,27.7,995.4,31.2,997.6,33.6L997.6,33.6z"/>
		</g>
	</g>
	<g>
		<g>
			<path class="st0" d="M1005.2,33.4c-1.3,4.8-3.9,9.4-6,14c-1.9,4.1-3.5,8.4-6.2,12c-1.9,2.6,2.4,5.1,4.3,2.5
				c3.1-4.1,4.9-9.2,7-13.8c2-4.3,4.5-8.7,5.7-13.4C1010.9,31.6,1006.1,30.2,1005.2,33.4L1005.2,33.4z"/>
		</g>
	</g>
	<g>
		<g>
			<path class="st0" d="M995.9,31.7c-2.9,8.3-5.8,16.2-9.8,24.1c-1.4,2.9,2.9,5.4,4.3,2.5c4.2-8.2,7.3-16.5,10.3-25.2
				C1001.8,29.9,996.9,28.6,995.9,31.7L995.9,31.7z"/>
		</g>
	</g>
	<g>
		<g>
			<path class="st0" d="M997.2,32c1,1.8,2.6,1.4,4.3,1.4c1.3,0,2.6,0.3,3.6,1.3c2.3,2.3,5.8-1.3,3.5-3.5c-1.2-1.2-2.6-2-4.2-2.4
				c-0.8-0.2-1.6-0.3-2.4-0.4c-0.4,0-0.8,0-1.1,0c-0.1,0-1.2-0.1-0.7,0.1c0.5,0.4,1,0.8,1.5,1.1c0-0.1-0.1-0.1-0.1-0.2
				C999.9,26.7,995.6,29.2,997.2,32L997.2,32z"/>
		</g>
	</g>
	<g>
		<g>
			<path class="st0" d="M995.9,38.3c0.8,0.7,1.7,1.3,2.6,1.7c0.8,0.4,1.7,0.7,2.5,1.2c-0.3-0.3-0.6-0.6-0.9-0.9c0,0,0,0.1,0,0.1
				c0.1-1,0.3-2,0.4-3c0,0-0.1,0.1-0.1,0.1c0.4-0.2,0.7-0.4,1.1-0.6c-1.4,0.3-3.4,0.1-4.9,0c-1.3-0.1-2.5,1.2-2.5,2.5
				c0,1.4,1.1,2.4,2.5,2.5c1.3,0.1,2.5,0.1,3.8,0c1.2-0.1,2.8,0,3.6-1c0.8-1,0.9-1.9,0.4-3c-0.8-1.8-3.7-1.9-5-3.2
				C997.1,32.6,993.6,36.1,995.9,38.3L995.9,38.3z"/>
		</g>
	</g>
	<g>
		<g>
			<path class="st0" d="M1002.1,42.2c-0.1,0-0.8,0-0.3,0.1c-0.2,0-0.5-0.1-0.7-0.2c0.4,0.2-0.2-0.1-0.3-0.2
				c-0.2-0.1-0.4-0.2-0.6-0.3c-1.5-0.7-3.5-1.2-4.5,0.6c-0.9,1.5-0.1,3,1,4c0.9,0.9,1.9,1.7,2.8,2.6c1,0.9,2.6,1,3.5,0
				c0.9-0.9,1-2.6,0-3.5c-0.6-0.5-1.2-1.1-1.8-1.6c-0.3-0.3-0.5-0.5-0.8-0.8c-0.2-0.1-0.3-0.3-0.5-0.4c-0.4-0.4-0.3-0.3,0.2,0.5
				c0,0.4,0,0.9,0,1.3c0,0,0-0.1,0-0.1c-0.4,0.5-0.8,1-1.1,1.5c0,0,0.1,0,0.1-0.1c-0.4,0.1-0.8,0.2-1.3,0.3c0,0-0.4,0-0.4-0.1
				c0,0,0.5,0.2,0.6,0.3c0.5,0.2,0.9,0.4,1.4,0.6c0.8,0.3,1.6,0.5,2.5,0.4c1.3-0.2,2.6-1,2.5-2.5C1004.5,43.4,1003.5,42,1002.1,42.2
				L1002.1,42.2z"/>
		</g>
	</g>
	<g>
		<g>
			<path class="st0" d="M992.2,49.1c1.3,0.8,2.6,1.5,3.8,2.3c-0.3-0.3-0.6-0.6-0.9-0.9c0,0,0.1,0.1,0.1,0.1
				c-0.1-0.6-0.2-1.3-0.3-1.9c0,0.1,0,0.1,0,0.2c0.2-0.4,0.4-0.7,0.6-1.1c0,0-0.1,0.1-0.1,0.1c0.4-0.2,0.7-0.4,1.1-0.6
				c-0.3,0.1-1.2,0.1-1.8,0.1c-0.8,0-1.6,0-2.5,0c-3.2-0.1-3.2,4.9,0,5c1.3,0,2.5,0,3.8,0c1.4-0.1,3-0.3,3.6-1.8
				c1.2-3-2.9-4.5-4.9-5.7C992,43.1,989.5,47.5,992.2,49.1L992.2,49.1z"/>
		</g>
	</g>
	<g>
		<g>
			<path class="st0" d="M998.3,52.9c-1-0.5-2.1-1.1-3.2-1.4c-1.5-0.5-3.3,0.3-3.7,2c-0.6,2.3,1.3,4.4,2.8,5.8c0.9,0.9,2.6,1,3.5,0
				c0.9-1,1-2.6,0-3.5c-0.2-0.2-0.5-0.4-0.7-0.7c-0.1-0.1-0.2-0.2-0.3-0.4c-0.2-0.2-0.2-0.2-0.1-0.1c0.1,0.1,0.1,0.1-0.1-0.1
				c-0.1-0.1-0.2-0.3-0.2-0.4c0.1,0.2,0.1,0.2,0,0c0,0.2,0,0.4,0,0.6c-0.2,0.4-0.4,0.7-0.6,1.1c0,0,0.1-0.1,0.1-0.1
				c-0.4,0.2-0.7,0.4-1.1,0.6c-0.3,0.1-1.8-0.4-0.8,0.1c0.2,0.1,0.4,0.2,0.7,0.3c0.4,0.2,0.9,0.4,1.3,0.6c1.2,0.5,2.7,0.4,3.4-0.9
				C999.8,55.3,999.6,53.5,998.3,52.9L998.3,52.9z"/>
		</g>
	</g>
	<g>
		<g>
			<path class="st0" d="M956.3,47.9c3.2,0,3.2-5,0-5C953.1,42.9,953.1,47.9,956.3,47.9L956.3,47.9z"/>
		</g>
	</g>
	<g>
		<g>
			<path class="st0" d="M960.8,45.3c3.2,0,3.2-5,0-5C957.5,40.3,957.5,45.3,960.8,45.3L960.8,45.3z"/>
		</g>
	</g>
	<g>
		<g>
			<path class="st0" d="M974.7,45.5c3.2,0,3.2-5,0-5C971.5,40.5,971.5,45.5,974.7,45.5L974.7,45.5z"/>
		</g>
	</g>
	<g>
		<g>
			<path class="st0" d="M957.6,55.3c3.2,0,3.2-5,0-5C954.4,50.3,954.4,55.3,957.6,55.3L957.6,55.3z"/>
		</g>
	</g>
	<g>
		<g>
			<path class="st0" d="M963.9,51.1c3.2,0,3.2-5,0-5C960.7,46.1,960.7,51.1,963.9,51.1L963.9,51.1z"/>
		</g>
	</g>
	<g>
		<g>
			<path class="st0" d="M979.1,49.8c3.2,0,3.2-5,0-5C975.9,44.8,975.8,49.8,979.1,49.8L979.1,49.8z"/>
		</g>
	</g>
	<g>
		<g>
			<path class="st0" d="M1001.6,70.6c-0.9-1-2-1.8-3.1-2.5c-1.1-0.6-2.8-0.3-3.4,0.9c-0.6,1.2-0.3,2.7,0.9,3.4
				c0.2,0.1,0.5,0.3,0.7,0.4c0.1,0.1,0.2,0.1,0.3,0.2c0,0,0.1,0.1,0.1,0.1c0.1,0.1,0.1,0.1-0.2-0.1c0,0.1,0.4,0.4,0.5,0.5
				c0.2,0.2,0.4,0.4,0.6,0.6c0.9,1,2.6,1,3.5,0C1002.5,73.1,1002.5,71.7,1001.6,70.6L1001.6,70.6z"/>
		</g>
	</g>
	<g>
		<g>
			<path class="st0" d="M968.8,76.4c0.3-0.3,0.6-0.6,1-0.9c0.1-0.1,0.1-0.1-0.2,0.1c0.1-0.1,0.2-0.1,0.3-0.2
				c0.2-0.1,0.4-0.3,0.6-0.4c1.1-0.7,1.6-2.3,0.9-3.4c-0.7-1.1-2.2-1.6-3.4-0.9c-1,0.6-1.9,1.3-2.7,2.1c-0.9,0.9-1,2.6,0,3.5
				C966.2,77.4,967.8,77.4,968.8,76.4L968.8,76.4z"/>
		</g>
	</g>
	<g>
		<g>
			<path class="st0" d="M949.9,77.7c-0.3,1.4-0.7,2.8-1,4.1c-0.3,1.3,0.4,2.8,1.7,3.1c1.3,0.3,2.8-0.4,3.1-1.7
				c0.3-1.4,0.7-2.8,1-4.1c0.3-1.3-0.4-2.8-1.7-3.1C951.7,75.7,950.3,76.4,949.9,77.7L949.9,77.7z"/>
		</g>
	</g>
	<g>
		<g>
			<path class="st0" d="M973,60.4c-1.1,3.2,3.8,4.6,6,5.4c1.3,0.4,2.7-0.5,3.1-1.7c0.4-1.4-0.5-2.6-1.7-3.1
				c-0.6-0.2-1.2-0.4-1.7-0.6c-0.3-0.1-0.5-0.2-0.8-0.4c-0.2-0.1-0.4-0.2-0.5-0.3c-0.3-0.2-0.4-0.2-0.1,0c0.2,0.4,0.4,0.7,0.6,1.1
				c0-0.1,0-0.1-0.1-0.2c0,0.4,0,0.9,0,1.3c0-0.1,0-0.1,0.1-0.2c0.4-1.3-0.5-2.7-1.7-3.1C974.8,58.3,973.5,59.1,973,60.4L973,60.4z"
				/>
		</g>
	</g>
	<g>
		<g>
			<path class="st0" d="M994.4,82.4c0.6,0.6,1.3,1.2,2,1.6c1.1,0.7,2.8,0.2,3.4-0.9c0.7-1.3,0.3-2.6-0.9-3.4
				c-0.1-0.1-0.2-0.2-0.4-0.3c-0.3-0.2,0.4,0.4,0,0c-0.2-0.2-0.4-0.4-0.6-0.6c-0.9-0.9-2.6-1-3.5,0
				C993.4,79.8,993.4,81.4,994.4,82.4L994.4,82.4z"/>
		</g>
	</g>
	<g>
		<g>
			<path class="st0" d="M977,79.1c-0.1,0.3-0.2,0.5-0.4,0.8c-0.1,0.2-0.6,0.9-0.2,0.4c-0.4,0.5-0.7,1-0.7,1.8c0,0.6,0.3,1.3,0.7,1.8
				c0.9,0.8,2.7,1.1,3.5,0c0.5-0.7,1-1.3,1.4-2.1c0.3-0.6,0.4-1.2,0.3-1.9c-0.2-0.6-0.6-1.2-1.1-1.5C979.4,77.6,977.6,77.8,977,79.1
				L977,79.1z"/>
		</g>
	</g>
	<g>
		<g>
			<path class="st0" d="M959.2,71.3c0,0,0,0.1,0,0.1c0,1.3,1.1,2.6,2.5,2.5c1.4-0.1,2.5-1.1,2.5-2.5c0,0,0-0.1,0-0.1
				c0-1.3-1.1-2.6-2.5-2.5C960.4,68.9,959.2,69.9,959.2,71.3L959.2,71.3z"/>
		</g>
	</g>
	<g>
		<g>
			<path class="st0" d="M963.2,92.6c0.8,0.2,1.6,0.4,2.4,0.6c1.3,0.3,2.8-0.4,3.1-1.7c0.3-1.3-0.4-2.8-1.7-3.1
				c-0.8-0.2-1.6-0.4-2.4-0.6c-1.3-0.3-2.8,0.4-3.1,1.7C961.2,90.8,961.9,92.3,963.2,92.6L963.2,92.6z"/>
		</g>
	</g>
	<g>
		<g>
			<path class="st0" d="M1004.1,87c0.3,0.5,0.6,0.9,0.8,1.4c0.7,1.1,2.3,1.6,3.4,0.9c1.1-0.7,1.6-2.2,0.9-3.4
				c-0.3-0.5-0.6-0.9-0.8-1.4c-0.7-1.1-2.3-1.6-3.4-0.9C1003.9,84.4,1003.4,85.8,1004.1,87L1004.1,87z"/>
		</g>
	</g>
	<g>
		<g>
			<path class="st0" d="M986.9,63c0.2,0.2,0.5,0.4,0.7,0.6c1,0.9,2.6,1,3.5,0c0.9-0.9,1-2.6,0-3.5c-0.2-0.2-0.5-0.4-0.7-0.6
				c-1-0.9-2.6-1-3.5,0C986.1,60.4,985.9,62.1,986.9,63L986.9,63z"/>
		</g>
	</g>
</g>
<g>
	<g>
		<g>
			<path class="st0" d="M976.9,198.9c0.3,22.4,0.3,44.9,0.1,67.3c0,3.2,5,3.2,5,0c0.2-22.4,0.2-44.9-0.1-67.3
				C981.8,195.6,976.8,195.6,976.9,198.9L976.9,198.9z"/>
		</g>
	</g>
	<g>
		<g>
			<path class="st0" d="M977.8,270c7.1,5.7,16.3,6.8,25.1,7.9c9.2,1.1,18.6,1,26.5-4.3c2.7-1.8,0.2-6.1-2.5-4.3
				c-6.8,4.5-14.6,4.6-22.4,3.8c-7.7-0.8-17-1.6-23.2-6.6C978.8,264.4,975.3,268,977.8,270L977.8,270z"/>
		</g>
	</g>
	<g>
		<g>
			<path class="st0" d="M1028.2,198.2c0,23.5,0,47,0,70.5c0,3.2,5,3.2,5,0c0-23.5,0-47,0-70.5C1033.2,195,1028.2,195,1028.2,198.2
				L1028.2,198.2z"/>
		</g>
	</g>
	<g>
		<g>
			<path class="st0" d="M1033.3,211.9c3.6-3.2,8.2,0.5,9.2,4.1c1,3.7,0.4,7.9-0.7,11.5c-2.2,6.9-7,12.6-11.8,17.8
				c-2.2,2.4,1.3,5.9,3.5,3.5c7.9-8.5,15.6-18.9,14.3-31.1c-0.5-4.2-1.9-8.7-5.9-10.7c-3.8-1.9-9-1.5-12.1,1.3
				C1027.4,210.5,1030.9,214.1,1033.3,211.9L1033.3,211.9z"/>
		</g>
	</g>
	<g>
		<g>
			<path class="st0" d="M977,199.6c2.7,1.6,5.4,1.8,8.4,1.8c1.8,0,3.9-0.4,5.6,0.1c3.2,0.9,3.5,4.1,4,6.9c0.7,4,3.2,7.5,3.4,11.4
				c0.1,2.8,0,5.7,2.6,7.5c5.2,3.6,10-2.6,10.2-7.3c0.3-4.6-1.3-10.3,2.7-13.9c1.2-1.1,2-1.9,2.9-0.5c0.2,0.3,0,1.5,0,1.9
				c0.2,1.3,0.6,2.8,1.6,3.8c5.7,5.5,8.5-4.9,9.4-8.4c1.2-4.5,6.2-3.1,9.3-5.5c2.4-1.8,3.7-4.9,3.2-7.8c-0.3-2.5-1.9-4.9-4.1-6.2
				c-3.5-2.2-7.3-0.8-11.1-1c-4.5-0.2-8.4-2.7-12.7-3.6c-3.8-0.8-7.1-0.2-10.7,1.3c-5.8,2.4-11,2.4-17.1,2.5
				c-3.9,0.1-8,0.4-11.2,2.9c-5.5,4.2-5.4,12.3,1.4,14.9c3,1.1,4.3-3.7,1.3-4.8c-4.7-1.8,0.3-6.6,2.9-7.4c2.4-0.7,4.9-0.6,7.4-0.6
				c4.4,0,8.8,0.1,13.1-1.2c4-1.3,7.2-3.6,11.6-2.7c4.1,0.8,7.7,3,11.8,3.6c2,0.3,3.8-0.1,5.7,0c1.9-0.3,3.7,0,5.5,0.9
				c2,2.3,1.5,4.3-1.3,5.9c-2.9,1.3-5.4,0.1-7.8,2.8c-1.9,2.2-2,5.1-2.8,7.7c-1,3.2-0.3,0.4-0.7-1.2c-0.2-1-0.5-1.9-1.2-2.8
				c-4.3-4.8-10.3,1.3-12.4,5.2c-1.4,2.6-2.1,5.6-2.1,8.6c0,1.3,1.1,7.7-0.6,8.1c-3,0.7-1.9-3.2-2-4.6c-0.5-3.6-2.7-6.5-3.4-10.1
				c-0.6-2.7-0.7-5.5-2.5-7.8c-4.7-6.2-12.3-1.3-17.9-4.7C976.8,193.6,974.2,197.9,977,199.6L977,199.6z"/>
		</g>
	</g>
	<g>
		<g>
			<path class="st0" d="M987.7,267.4c10.4,3.5,26,7.1,36.3,1.8c2.9-1.5,0.3-5.8-2.5-4.3c-4.6,2.3-11,1.7-15.9,1.3
				c-5.7-0.5-11.1-1.8-16.5-3.6C986,261.5,984.7,266.4,987.7,267.4L987.7,267.4z"/>
		</g>
	</g>
	<g>
		<g>
			<path class="st0" d="M1025.2,263.2c-10.4-5.1-24-3.3-35.3-3.6c-3.2-0.1-3.2,4.9,0,5c5.6,0.1,11.2,0.2,16.7,0.4
				c5.5,0.1,11,0.1,16,2.5C1025.6,269,1028.1,264.7,1025.2,263.2L1025.2,263.2z"/>
		</g>
	</g>
	<g>
		<g>
			<path class="st0" d="M984.4,202.7c0.2,20.4,0.5,40.8,1.1,61.2c0.1,3.2,5.1,3.2,5,0c-0.6-20.4-1-40.8-1.1-61.2
				C989.4,199.5,984.4,199.5,984.4,202.7L984.4,202.7z"/>
		</g>
	</g>
	<g>
		<g>
			<path class="st0" d="M1020.8,214.7c-0.5,16.6,0.1,33.3,1.6,49.8c0.3,3.2,5.3,3.2,5,0c-1.5-16.6-2.1-33.2-1.6-49.8
				C1025.9,211.5,1020.9,211.5,1020.8,214.7L1020.8,214.7z"/>
		</g>
	</g>
	<g>
		<g>
			<path class="st0" d="M1033.7,217c0.7-0.3,1.5-0.4,2.2-0.4c1.1,0.1,1.5,0.8,1.2,1.9c0.4,1.2,0.2,2.9,0.2,4.1
				c-0.1,3.7-1.3,6.6-3.3,9.6c-1.8,2.7,2.6,5.2,4.3,2.5c3.7-5.6,4.6-11.5,3.7-18.1c-0.7-5.1-5.2-5.8-9.6-4.5
				C1029.3,213.1,1030.6,217.9,1033.7,217L1033.7,217z"/>
		</g>
	</g>
	<g>
		<g>
			<path class="st0" d="M978.9,196.2c4.1,0.4,8.2,0.9,12.3,1.3c3.2,0.3,3.2-4.7,0-5c-4.1-0.4-8.2-0.9-12.3-1.3
				C975.7,190.8,975.8,195.8,978.9,196.2L978.9,196.2z"/>
		</g>
	</g>
	<g>
		<g>
			<path class="st0" d="M1000.8,198.8c0.4,0,0.8,0,1.2,0c1.3,0,2.6-1.1,2.5-2.5c-0.1-1.4-1.1-2.5-2.5-2.5c-0.4,0-0.8,0-1.2,0
				c-1.3,0-2.6,1.1-2.5,2.5C998.3,197.6,999.4,198.8,1000.8,198.8L1000.8,198.8z"/>
		</g>
	</g>
	<g>
		<g>
			<path class="st0" d="M1010,199c6,0.2,11.9-0.6,17.7-2.5c3.1-1,1.7-5.8-1.3-4.8c-5.3,1.7-10.7,2.5-16.3,2.3
				C1006.8,193.9,1006.8,198.9,1010,199L1010,199z"/>
		</g>
	</g>
</g>
<g>
	<path class="st1" d="M949.1,482.4c-1.4-1-4.1-1-5.2,0.8c-1.1,1.8-0.4,4.1,1.4,4.9c1.3,0.6,4,1.4,5.2,0c1.1-1.2,1.1-3.5,0.1-4.7
		C950.1,483,949.6,482.8,949.1,482.4"/>
	<path class="st1" d="M976.6,473.1c-0.7-0.5-2.1-0.9-3-0.4c-0.6,0.3-1.4,1.5-1.7,2c-1,1.8,0.2,3.6,2,4.1c2,0.5,3.9,0.5,4.6-1.5
		c0.7-2.2-0.1-3.4-2-4.3"/>
	<path class="st1" d="M953.4,510.2c-1.8-0.6-3.9,0.8-4.5,2.8c-0.6,1.9,1.2,3.3,2.9,3.8c2,0.6,3.7-0.2,4.1-2.1
		c0.4-1.8-0.8-3.4-2.1-4.1c-0.2-0.1-0.3-0.3-0.5-0.4"/>
	<path class="st1" d="M973.5,546c-0.5-0.1-1.2-0.2-1.7,0.1c-0.4,0.2-0.5,0.2-1.1,0.9c-0.7,1.5-0.4,3.5,1.5,3.9
		c0.1,0.1,0.3,0,0.3,0.1c1.5,0.2,2.8-0.6,2.9-2.2c0.1-0.8,0-1.4-0.5-2c-0.5-0.5-1.1-0.7-1.7-0.8"/>
	<path class="st1" d="M1002.8,453.6c-1.2-0.5-2.2,1.2-2.3,2.2c-0.1,1.2,1.7,2.4,2.7,2.4c1.3-0.1,1.9-1.2,2.2-2.4
		c0.4-1.3-1.1-2.2-2.3-2.3c-0.2,0-0.4,0-0.6,0"/>
	<g>
		<g>
			<path class="st0" d="M999.5,463.3c-3,1.8-4,6.6-2.6,9.7c2.4,5,7.6,2.5,10.4-0.4c-1.4-0.4-2.8-0.7-4.2-1.1
				c0.7,1.6,0.4,2.7-1.2,3.6c-1.2,0.6-3,0.2-3.8-1.1c-1.3-2.3,0.7-6.5,3.2-7c3.2-0.6,1.8-5.4-1.3-4.8c-6.7,1.2-9.8,11.9-4.5,16.3
				c2.8,2.3,6.6,2.6,9.5,0.5c3-2.2,4.4-5.2,2.9-8.8c-0.7-1.6-2.8-2.6-4.2-1.1c-0.4,0.5-1,1.3-1.5,1.5c-1.2,0.6-0.6,0.6-0.9-0.2
				c-0.2-0.5,0.1-2.5,0.7-2.8C1004.7,466,1002.2,461.6,999.5,463.3L999.5,463.3z"/>
		</g>
	</g>
	<g>
		<g>
			<path class="st0" d="M985.6,483.9c-14,2.1-24.2,10.3-27.4,24.5c-3,13,2.4,25.2,14.8,30.5c6,2.5,12.9,4.1,19.4,4.1
				c6.7,0,12.5-3.6,17.6-7.7c8.6-6.9,13.4-23.3,9.7-33.7c-2.1-5.9-7.8-10.9-12.9-14.1c-6.6-4.1-12.6-3.3-19.9-3.8
				c-3.2-0.2-3.2,4.8,0,5c6.4,0.4,11.6-0.5,17.4,3.1c5.7,3.5,11.3,9.1,11.6,16.1c0.7,12.7-7.8,28.3-21.4,30.1
				c-13.2,1.7-30.8-5.4-32.1-20.1c-0.7-7.3,2.3-15.3,7-20.9c4.5-5.3,11-7.1,17.6-8.1C990.1,488.2,988.8,483.4,985.6,483.9
				L985.6,483.9z"/>
		</g>
	</g>
	<g>
		<g>
			<path class="st0" d="M964.3,527.6c1.7-0.5,3.6-1,5.1,0.1c1.8,1.4,1.9,3.5,1.1,5.4c-0.5,1.3,0.6,2.7,1.7,3.1
				c1.4,0.4,2.6-0.5,3.1-1.7c1.5-3.6,0.6-7.7-2.4-10.3c-2.9-2.5-6.5-2.4-10-1.4C959.9,523.6,961.2,528.4,964.3,527.6L964.3,527.6z"
				/>
		</g>
	</g>
	<g>
		<g>
			<path class="st0" d="M1013,525.9c-7.4-2,0.5-9.5-1.3-14.1c-0.5-1.2-2.7-2.9-2.6-4c0.2-1.2,4.6-1,5.8-1.2c3.2-0.5,1.8-5.3-1.3-4.8
				c-3.1,0.5-6.9,0-9,2.8c-2.1,2.7-0.6,4.9,0.9,7.3c0.8,1.2,1.1,0.7,1.1,2.5c0,1.4-0.7,2.2-1.2,3.4c-0.7,1.8-1.2,3.5-0.8,5.4
				c0.7,3.9,3.3,6.5,7,7.5C1014.7,531.5,1016.1,526.7,1013,525.9L1013,525.9z"/>
		</g>
	</g>
	<g>
		<g>
			<path class="st0" d="M991.4,488.3c2,1.7,1,3.7,1,6c0,2.1,1.5,3.7,1.7,5.7c0.1,1.1,0.7,2.1,1.8,2.4c1.6,0.4,3,0.3,4.3-0.7
				c1.1-0.8,1.5-2.2,2.5-3.1c0.9-0.8,2.3-0.7,3.3-1.6c1.4-1.3,1.7-3,2.1-4.8c0.7-3.1-4.1-4.5-4.8-1.3c-0.2,0.8-0.2,1.8-0.8,2.3
				c-0.6,0.5-1.8,0.6-2.6,1.1c-0.6,0.5-2.3,3.2-2.7,3.1c0.6,0.8,1.2,1.6,1.8,2.4c-0.2-1.4-0.5-2.6-1.1-3.9c-0.6-1.4-0.5-2.4-0.4-3.9
				c0.3-2.9-0.5-5.5-2.7-7.4C992.5,482.7,988.9,486.2,991.4,488.3L991.4,488.3z"/>
		</g>
	</g>
	<g>
		<g>
			<path class="st0" d="M980.3,488.2c0.1,1.2,0.4,2.7-0.8,3.3c-1,0.5-2.4,0-3.5,0.2c-1.7,0.3-3.1,1.1-4.1,2.5
				c-1.9,2.5-2.1,6.5,0.9,8.3c1.5,0.9,3.6,1,5.1,0.2c1.5-0.7,2-2.9,3.5-3.1c2.1-0.4,4.1,1,6.2-0.4c0.6-0.4,1.1-1,1.4-1.6
				c0.2-0.4,0.4-0.9,0.5-1.4c0.2-1.2,0.9-0.6-0.5-0.8c-0.6-0.2-1.2-0.5-1.8-0.7c0.6,0.6,0.9,1.5,1.2,2.3c0.5,1.6,2.2,2.3,3.7,1.5
				c5.9-3.1,0.9-10-1.6-13.7c-1.8-2.6-6.2-0.1-4.3,2.5c0.8,1.1,4.7,6.1,3.4,6.8c1.2,0.5,2.4,1,3.7,1.5c-0.8-2.8-3.5-7.3-6.8-4.2
				c-0.7,0.7-1.2,1.6-1.5,2.5c-0.5,1.3-0.2,1.1-1.6,0.8c-2-0.4-4.3-0.3-5.9,1.1c-0.7,0.6-1,1.3-1.5,2c-0.3,0.4-0.5,0.8-0.4,0.2
				c0.5-2,2.2-1.3,3.8-1.4c4.6-0.2,6.5-4.4,6-8.5C984.9,485,979.9,485,980.3,488.2L980.3,488.2z"/>
		</g>
	</g>
	<g>
		<g>
			<path class="st0" d="M969.4,504.8c0,2.7-1.1,2.3-2.8,4c-1.3,1.4-2.2,3.1-2.4,5c-0.5,3.9,1.7,6.9,5.1,8.6c2,1,4.5,1.7,6.7,2
				c0.9,0.1,2.2-0.1,3,0.2c2,0.6,3.9,3.5,5,5c1.8,2.3,4,4.6,5.5,7c1.1,1.9,1.7,3.8,3.1,5.5c1.3,1.6,3.6,0.5,4.2-1.1
				c0.9-2.5,1.1-4.7,2.4-7.2c0.9-1.5,1.6-2.8,1.9-4.6c0.5-2.5,0.1-5,0.5-7.5c0.4-2.5,1.8-4.4,2.6-6.7c1.2-3.5-0.6-3.8-2.4-6.2
				c-1.1-1.4,0.2,0.8,0.4,0.2c0.1-0.5,0.7-1.2,0.9-1.7c0.6-1.4,0.3-2.8-0.4-4.1c-0.6-1.1-1.7-1.9-2.9-2.4c-1.9-0.9-3.4,0.2-5.3-0.4
				c-1.2-0.3-2.2-1.6-3.6-2c-1.4-0.4-3.1-0.4-4.6,0.1c-1.4,0.5-2.2,1.4-3.1,2.5c-1.9,2.5-0.2,1.8-2.2,0.9c-1.3-0.6-2.4-1-3.8-0.7
				c-1.2,0.2-3.3,2-4.3,1.5c-2.8-1.6-5.3,2.7-2.5,4.3c2.4,1.4,3.7,0.8,6.1,0c2.7-0.9,3.5,1.7,6.3,1.2c3.5-0.6,3.7-5.2,8.1-4.2
				c0.8,0.2,1.6,1.4,2.5,1.7c1.2,0.3,3.6-0.6,4.1,0.2c0.8,1.3-2,3.6-0.4,5.8c0.5,0.7,1.9,1,2.1,1.7c0.3,1-1.5,3.2-1.9,4.2
				c-1.5,4-0.1,8.6-1.9,12.4c-0.7,1.5-2,2.5-2.6,4c-0.8,1.8-0.3,3.8-1,5.7c1.4-0.4,2.8-0.7,4.2-1.1c-1.4-1.6-1.9-3.9-3.1-5.7
				c-1.4-2-3.2-3.9-4.7-5.8c-2.2-2.9-4.5-6.7-8.4-7.4c-3.6-0.6-15.2-1.6-9.2-7.7c2.7-2.7,3.6-3,3.6-7.1
				C974.5,501.6,969.5,501.6,969.4,504.8L969.4,504.8z"/>
		</g>
	</g>
</g>
<g>
	<g>
		<g>
			<path class="st0" d="M888.2-1.4c3-5.2,2.5-11.4,0.7-16.9c-0.8-2.6-2-5.1-3.4-7.4c-1.6-2.4-4.4-4.8-5.2-7.7
				c-1.2-4.4,1.4-9.6,6.2-10c3.7-0.3,7.7,2,10.6,4c6,4,10,10.2,11.6,17.1c3.5,14.6-2.6,29-16,36.2c-9.3,5-11.5-11.6-4-15
				c2.9-1.3,0.4-5.6-2.5-4.3c-7.8,3.6-9,15.4-4.2,21.7c7.4,9.7,20.1-2.2,25.3-8.4c8.9-10.6,9.6-26.6,3.6-38.8
				c-4.6-9.4-20.2-23.7-31.1-15.1c-5.3,4.2-6.2,12.3-2.5,17.8c4.6,6.7,11.5,15.7,6.6,24.2C882.3-1.1,886.6,1.4,888.2-1.4L888.2-1.4z
				"/>
		</g>
	</g>
	<g>
		<g>
			<path class="st0" d="M895.5-0.2c4.2-11,4.3-22.3-4.8-30.9c-2.3-2.2-5.9,1.3-3.5,3.5c7.8,7.3,7,16.7,3.5,26
				C889.6,1.5,894.4,2.8,895.5-0.2L895.5-0.2z"/>
		</g>
	</g>
	<g>
		<g>
			<path class="st0" d="M916.3-63.5c-2.1,4.1-0.9,8.5-0.8,12.8c0.1,8.9-9.1,4.2-11.3-1.4c-4.3-10.7,2.8-21.8,9.7-29.5
				c3.3-3.7,7.7-8.1,12.9-8.9c4.8-0.7,11.2,4.1,9.6,9.4c-1.4,4.4-7.4,7.3-10.9,9.6C922.1-69.4,918.2-67.1,916.3-63.5
				c-1.5,2.8,2.8,5.4,4.3,2.5c2.2-4.1,7.7-6.3,11.3-8.9c3.6-2.5,7.9-5.5,9.2-10c3-9.8-8.7-17.8-17.4-15.1
				c-10.4,3.2-18.4,14.6-22.9,23.9c-4.3,9.1-4.8,23.4,5.4,28.9c4.4,2.4,11.2,2.2,13.4-3c2.2-5-1.5-11.2,0.9-16
				C922.1-63.9,917.8-66.4,916.3-63.5L916.3-63.5z"/>
		</g>
	</g>
	<g>
		<g>
			<path class="st0" d="M912.5-50.2c-3.3-11,3-19.7,12-25.5c2.7-1.7,0.2-6.1-2.5-4.3c-10.9,7-18.3,17.9-14.3,31.1
				C908.6-45.8,913.5-47.1,912.5-50.2L912.5-50.2z"/>
		</g>
	</g>
</g>
<g>
	<g>
		<g>
			<path class="st0" d="M40.3,45.8C27.1,41.1,19.2,53.6,14.4,64c-4.4,9.5-11.2,26.9-0.6,34.8c10.1,7.5,26.6,6,37.6,1.5
				c9-3.7,24.2-13,14.6-24c-2.1-2.4-5.7,1.1-3.5,3.5c7.5,8.5-13.1,16.3-18.8,17.8c-4.4,1.1-9.1,1.5-13.6,1.1
				c-4.6-0.4-11.6-1.5-14.6-5.3c-5.6-7,0.4-20.6,3.7-27.6c3.7-8,9.5-18.9,19.9-15.2C42.1,51.7,43.4,46.8,40.3,45.8L40.3,45.8z"/>
		</g>
	</g>
	<g>
		<g>
			<path class="st0" d="M32,57.1c3.2,0,3.2-5,0-5C28.8,52.1,28.8,57.1,32,57.1L32,57.1z"/>
		</g>
	</g>
	<g>
		<g>
			<path class="st0" d="M38.7,65.1c3.2,0,3.2-5,0-5C35.5,60.1,35.5,65.1,38.7,65.1L38.7,65.1z"/>
		</g>
	</g>
	<g>
		<g>
			<path class="st0" d="M29.7,66.3c3.2,0,3.2-5,0-5C26.5,61.3,26.5,66.3,29.7,66.3L29.7,66.3z"/>
		</g>
	</g>
	<g>
		<g>
			<path class="st0" d="M43.3,71.3c3.2,0,3.2-5,0-5C40,66.3,40,71.3,43.3,71.3L43.3,71.3z"/>
		</g>
	</g>
	<g>
		<g>
			<path class="st0" d="M50.4,77.3c3.2,0,3.2-5,0-5C47.2,72.3,47.2,77.3,50.4,77.3L50.4,77.3z"/>
		</g>
	</g>
	<g>
		<g>
			<path class="st0" d="M21.9,70.7c3.2,0,3.2-5,0-5C18.7,65.7,18.7,70.7,21.9,70.7L21.9,70.7z"/>
		</g>
	</g>
	<g>
		<g>
			<path class="st0" d="M35.7,72.8c3.2,0,3.2-5,0-5C32.5,67.8,32.5,72.8,35.7,72.8L35.7,72.8z"/>
		</g>
	</g>
	<g>
		<g>
			<path class="st0" d="M56.8,85.6c3.2,0,3.2-5,0-5C53.6,80.6,53.6,85.6,56.8,85.6L56.8,85.6z"/>
		</g>
	</g>
	<g>
		<g>
			<path class="st0" d="M44.4,80.8c3.2,0,3.2-5,0-5C41.2,75.8,41.1,80.8,44.4,80.8L44.4,80.8z"/>
		</g>
	</g>
	<g>
		<g>
			<path class="st0" d="M25.6,77c3.2,0,3.2-5,0-5C22.4,72,22.4,77,25.6,77L25.6,77z"/>
		</g>
	</g>
	<g>
		<g>
			<path class="st0" d="M17.2,84.6c3.2,0,3.2-5,0-5C14,79.6,13.9,84.6,17.2,84.6L17.2,84.6z"/>
		</g>
	</g>
	<g>
		<g>
			<path class="st0" d="M33.8,77.5c3.2,0,3.2-5,0-5C30.6,72.5,30.6,77.5,33.8,77.5L33.8,77.5z"/>
		</g>
	</g>
	<g>
		<g>
			<path class="st0" d="M20.9,94.9c5,4.9,13.2,2.8,19.4,2.4c3.2-0.2,3.2-5.2,0-5c-4.2,0.3-12.4,2.5-15.9-0.9
				C22.2,89.1,18.7,92.6,20.9,94.9L20.9,94.9z"/>
		</g>
	</g>
	<g>
		<g>
			<path class="st0" d="M40.6,41.9c-1.3,3.8-3.3,8.4-1,12.1c3.3,5.1,7.8,9.7,11.6,14.5c3,3.8,6,8.5,10.5,10.8
				c4.7,2.4,9.8,0.8,14.4-1c1.6-0.6,2.2-2.1,1.5-3.7c-0.6-1.3-1.3-2.6-2.4-3.5c-1.6-1.4-4.1-1.3-5.6-2.6c-2.6-2.2,0.9-6.8-1.6-9.7
				c-0.8-0.9-2-1.5-3.2-1.8c-2.2-0.5-4,1-5.2-1.1c-1.2-2,0.9-4.4,0.6-6.9c-0.2-1.7-1.1-3-2.1-4.4c-0.9-1.1-2.1-1.6-3.4-0.9
				c-0.9,0.5-2.3,1.5-3.4,1.5c-2,0-2.3-1.6-3-2.9c-0.8-1.3-1-2.3-2.2-3.3c-2.5-2-6,1.5-3.5,3.5c2.5,2.1,1.5,6.2,5.1,7.6
				c3.1,1.2,6.9-0.8,9.6-2.2c-1.1-0.3-2.3-0.6-3.4-0.9C56.7,50.8,52.2,55,54,59c1.6,3.6,4.6,2.5,7.6,3c2.9,0.4,2,1.8,1.8,4.2
				c-0.1,1.3,0,2.5,0.7,3.7c2,3.8,7.4,3.2,9.2,7.2c0.5-1.2,1-2.4,1.5-3.7c-4.8,1.9-9.4,3.3-13.5-0.7c-2.7-2.6-4.8-5.7-7.1-8.6
				c-2.6-3.3-5.3-6.5-7.9-9.8c-1.2-1.5-2.5-2.6-2.7-4.6c-0.2-1.9,1.2-4.8,1.9-6.5C46.4,40.2,41.6,38.9,40.6,41.9L40.6,41.9z"/>
		</g>
	</g>
	<g>
		<g>
			<path class="st0" d="M42.2,48.8c-0.2,2.6,0.9,5.1,2.7,7c2.3,2.3,5.8-1.3,3.5-3.5c-1-1-1.3-2.1-1.2-3.4c0.1-1.3-1.2-2.5-2.5-2.5
				C43.2,46.3,42.2,47.4,42.2,48.8L42.2,48.8z"/>
		</g>
	</g>
	<g>
		<g>
			<path class="st0" d="M70.7,102.6c-5.3-2.7-9.3,0.8-12.3,5c-2.4,3.4-6.4,10.2-2.2,13.8c4.1,3.5,10.5,4.1,15.4,2.8
				c4.4-1.2,8.4-4.2,6.1-9.1c-1.4-2.9-5.7-0.4-4.3,2.5c0.7,1.4-5.9,2.2-6.5,2.2c-1.9,0-5.5-0.4-6.9-2c-2.3-2.5,4.8-12.6,8.1-11
				C71,108.4,73.6,104.1,70.7,102.6L70.7,102.6z"/>
		</g>
	</g>
	<g>
		<g>
			<path class="st0" d="M66.4,108.9c3.2,0,3.2-5,0-5C63.2,103.9,63.2,108.9,66.4,108.9L66.4,108.9z"/>
		</g>
	</g>
	<g>
		<g>
			<path class="st0" d="M70.2,115.3c3.2,0,3.2-5,0-5C66.9,110.3,66.9,115.3,70.2,115.3L70.2,115.3z"/>
		</g>
	</g>
	<g>
		<g>
			<path class="st0" d="M67.6,111.2c3.2,0,3.2-5,0-5C64.4,106.2,64.4,111.2,67.6,111.2L67.6,111.2z"/>
		</g>
	</g>
	<g>
		<g>
			<path class="st0" d="M72.7,120.1c3.2,0,3.2-5,0-5C69.5,115.1,69.5,120.1,72.7,120.1L72.7,120.1z"/>
		</g>
	</g>
	<g>
		<g>
			<path class="st0" d="M60.8,115.3c3.2,0,3.2-5,0-5C57.6,110.3,57.6,115.3,60.8,115.3L60.8,115.3z"/>
		</g>
	</g>
	<g>
		<g>
			<path class="st0" d="M63.1,112.1c3.2,0,3.2-5,0-5C59.9,107.1,59.9,112.1,63.1,112.1L63.1,112.1z"/>
		</g>
	</g>
	<g>
		<g>
			<path class="st0" d="M68.7,101.9c-1,1.7-2,3.4-1.3,5.4c0.8,2.3,2.3,4.6,3.4,6.7c2.1,4.1,4.6,5.6,9.2,4.9c1.3-0.2,2.1-1.9,1.7-3.1
				c-0.2-0.7-0.4-1.4-0.9-1.9c-0.5-0.7-1.7-1.2-2-1.9c0.1,0.6,0.2,1.3,0.3,1.9c0.3-1.7,1.3-3,0.2-4.7c-0.4-0.6-1-1-1.7-1.3
				c-0.4-0.2-0.8-0.3-1.2-0.3c-0.8-0.2-0.8-0.1,0.2,0.4c-0.1,0.6-0.2,1.3-0.3,1.9c1-2.3,1.9-3.6,0.7-6c-0.5-1-1.8-1.4-2.8-1.1
				c-0.3,0.1,0.5,2.6-0.1,0.2c-0.1-0.6-0.3-1-0.7-1.6c-1.6-2.8-5.9-0.3-4.3,2.5c0.7,1.2,0.2,2.2,1.4,3.2c1.4,1.2,3.3,0.8,4.9,0.4
				c-0.9-0.4-1.9-0.8-2.8-1.1c-0.1-0.3-1.1,2-1.1,2.3c-0.1,0.8,0.2,1.7,0.7,2.3c0.4,0.6,1.1,1,1.7,1.2c0.4,0.1,0.8,0.2,1.2,0.2
				c0.7,0.1,0.8,0.1,0.3,0c-0.2-0.6-0.5-1.2-0.7-1.8c0.1,1.3-0.8,2.1-0.4,3.5c0.4,1.3,2.3,1.9,2.5,2.9c0.6-1,1.2-2.1,1.7-3.1
				c-1.5,0.2-2,0.2-2.8-1.1c-0.6-0.9-1-1.9-1.5-2.8c-0.5-1-1.1-2-1.6-3.1c-0.6-1.3-0.6-1.4,0.1-2.7C74.7,101.6,70.4,99.1,68.7,101.9
				L68.7,101.9z"/>
		</g>
	</g>
	<g>
		<g>
			<path class="st0" d="M37.9,107.8c-5.5,0-7.3,5-7.8,9.8c-0.4,3.8-0.6,10.9,4.4,11.9c4.3,0.9,9.3-0.8,12.6-3.5
				c3.6-2.9,6.5-7.8,1.9-11.1c-2.6-1.9-5.1,2.4-2.5,4.3c0.7,0.5-4.2,4.1-4.8,4.4c-1.3,0.7-4.4,1.8-5.8,1.1c-2.4-1.2-1.2-11.7,2-11.8
				C41.1,112.8,41.1,107.8,37.9,107.8L37.9,107.8z"/>
		</g>
	</g>
	<g>
		<g>
			<path class="st0" d="M36.2,115.4c3.2,0,3.2-5,0-5C33,110.4,33,115.4,36.2,115.4L36.2,115.4z"/>
		</g>
	</g>
	<g>
		<g>
			<path class="st0" d="M41.9,118.9c3.2,0,3.2-5,0-5C38.7,113.9,38.7,118.9,41.9,118.9L41.9,118.9z"/>
		</g>
	</g>
	<g>
		<g>
			<path class="st0" d="M38.1,116.7c3.2,0,3.2-5,0-5C34.9,111.7,34.9,116.7,38.1,116.7L38.1,116.7z"/>
		</g>
	</g>
	<g>
		<g>
			<path class="st0" d="M46,121.6c3.2,0,3.2-5,0-5C42.8,116.6,42.8,121.6,46,121.6L46,121.6z"/>
		</g>
	</g>
	<g>
		<g>
			<path class="st0" d="M34.4,122.9c3.2,0,3.2-5,0-5C31.2,117.9,31.2,122.9,34.4,122.9L34.4,122.9z"/>
		</g>
	</g>
	<g>
		<g>
			<path class="st0" d="M34.9,119.3c3.2,0,3.2-5,0-5C31.7,114.3,31.7,119.3,34.9,119.3L34.9,119.3z"/>
		</g>
	</g>
	<g>
		<g>
			<path class="st0" d="M35.9,108.4c-0.1,1.8-0.1,3.7,1.4,5c1.6,1.4,3.6,2.5,5.3,3.7c1.6,1.1,3.2,2.3,5.2,2.3c1.9,0,3.5-1.1,4.9-2.2
				c1.1-0.8,0.8-2.7,0-3.5c-0.5-0.5-1-0.9-1.6-1.2c-0.7-0.3-1.8-0.2-2.4-0.6c0.4,0.5,0.8,1,1.1,1.5c-0.5-1.5-0.3-2.8-1.7-3.8
				c-1.5-1-2.7,0.1-4.2,0c0.6,0.2,1.2,0.5,1.8,0.7c0.4,0.5,0.3,0.2,0.3-0.4c0-0.5-0.1-1.2-0.4-1.7c-0.4-0.9-1.1-1.4-1.8-2
				c-0.9-0.7-2.3-0.3-3,0.4c-0.8,0.8,0.4,0.7,0.4,0.1c0-0.3-1.1-0.9-1.3-1c-2.7-1.7-5.2,2.6-2.5,4.3c0.6,0.4,0.8,1.1,1.4,1.5
				c0.5,0.3,1.3,0.6,1.9,0.6c1.4,0,2.7-1.1,3.7-2c-1,0.1-2,0.3-3,0.4c-0.6-0.4-0.2,1.7-0.1,1.9c0.2,0.7,0.7,1.3,1.2,1.7
				c0.6,0.4,1.5,0.7,2.2,0.6c0.5,0,1-0.1,1.4-0.4c0.6-0.2,0.7-0.3,0.1-0.1c-0.5-0.4-1-0.8-1.5-1.1c-0.2-0.3,0.1,0.9,0.1,1.1
				c0.1,0.6,0.4,1.2,0.8,1.7c0.4,0.5,1.1,0.9,1.7,1.1c0.5,0.2,1.5,0,1.8,0.4c0-1.2,0-2.4,0-3.5c-1.2,1-1.7,0.7-2.9-0.1
				c-0.8-0.5-1.5-1-2.2-1.5c-0.7-0.5-1.5-1-2.2-1.5c-1-0.7-0.9-0.8-0.9-2.1C41,105.1,36,105.1,35.9,108.4L35.9,108.4z"/>
		</g>
	</g>
</g>
</svg>
