<?xml version="1.0" encoding="utf-8"?>
<!-- Generator: Adobe Illustrator 20.0.0, SVG Export Plug-In . SVG Version: 6.00 Build 0)  -->
<svg version="1.1" id="Layer_1" xmlns="http://www.w3.org/2000/svg" xmlns:xlink="http://www.w3.org/1999/xlink" x="0px" y="0px"
	 viewBox="0 0 88 168" style="enable-background:new 0 0 88 168;" xml:space="preserve">
<style type="text/css">
	.st0{fill:#eded44;}
</style>
<g>
	<g>
		<g>
			<path class="st0" d="M66.4,18.6c2.4,0.7,6.5,0.7,8-1.8c1.7-2.9-0.9-5.6-3.5-6.6c-2.6-1-5.5-0.9-7.4,1.4
				C61.2,14.3,63.7,17.5,66.4,18.6c1.2,0.5,2.8-0.6,3.1-1.7c0.4-1.4-0.5-2.6-1.7-3.1c-0.3-0.1-0.1-0.3-0.1-0.1
				c-0.1,0.4-0.2,0.8-0.3,1.3c0.1-0.2,0.2-0.4,0.4-0.4c0.7-0.1,1.4,0.5,2,0.6c0,0,0.3,0.3,0.3,0.3c0.2-0.5,0.3-1,0.5-1.6
				c-0.1,0-0.2,0-0.4,0c-0.8-0.2-1.6,0.1-2.4-0.1C64.6,12.9,63.3,17.7,66.4,18.6z"/>
		</g>
	</g>
	<g>
		<g>
			<g>
				<path class="st0" d="M44.3,46.1c-8.2-0.3-15.5,2.1-23.1,5c-5.7,2.2-11.9,6-12.5,12.8C8.2,70,13.2,74.3,18.8,75.6
					c8.4,2,18.4,0.8,27,0.9c9.4,0.1,35,4.5,34.1-11.7c-0.3-6.7-5.7-11.1-11.4-13.5C61,48.2,52.4,46.2,44.3,46.1
					c-3.2-0.1-3.2,4.9,0,5c5.6,0.1,11,1.3,16.4,2.9c5.1,1.5,12.1,3.4,13.8,9.2c2.2,7.4-5.4,8.6-10.8,8.6c-5.9,0-11.9-0.1-17.8-0.2
					c-5.7-0.1-11.5-0.1-17.2-0.2c-4.9-0.1-16.8,0-14.7-8.2c1.6-6.1,10.5-8,15.7-9.8c4.9-1.7,9.5-2.4,14.6-2.3
					C47.5,51.2,47.5,46.2,44.3,46.1L44.3,46.1z"/>
			</g>
		</g>
		<g>
			<g>
				<path class="st0" d="M8.8,66.2c-1,13.3,3.6,25.6,6.2,38.5c3.1,14.8,4.3,30,8,44.7c0.8,3.1,5.6,1.8,4.8-1.3
					c-3.5-14.1-4.8-28.6-7.6-42.9c-2.6-13-7.4-25.5-6.4-39C14,63,9,63,8.8,66.2L8.8,66.2z"/>
			</g>
		</g>
		<g>
			<g>
				<path class="st0" d="M75.3,66.2c-0.9,13.8-2.3,27.4-6,40.8c-3.8,13.7-5.3,27.5-6.1,41.7c-0.2,3.2,4.8,3.2,5,0
					c0.9-15,3-29.2,6.9-43.7c3.4-12.6,4.5-25.7,5.3-38.7C80.5,63,75.5,63,75.3,66.2L75.3,66.2z"/>
			</g>
		</g>
		<g>
			<g>
				<path class="st0" d="M61.9,14.2c0.4,12.2-2.6,24-5.2,35.8c-2.4,10.8-4.6,21.8-6.5,32.7c-3.8,21.6-6.8,43.3-9.3,65
					c-0.4,3.2,4.6,3.2,5,0c2.7-22.5,5.8-44.9,9.8-67.2c1.9-10.7,4.1-21.4,6.5-32c2.6-11.3,5.2-22.7,4.8-34.4
					C66.8,11,61.8,11,61.9,14.2L61.9,14.2z"/>
			</g>
		</g>
		<g>
			<g>
				<path class="st0" d="M70.7,15.9c-1.1,22.9-7.2,45-11.6,67.4c-4.2,21.7-7.8,43.5-10.4,65.4c-0.4,3.2,4.6,3.2,5,0
					c2.7-22.7,6.5-45.3,10.9-67.7c4.3-21.6,10-43,11-65.1C75.9,12.7,70.9,12.7,70.7,15.9L70.7,15.9z"/>
			</g>
		</g>
		<g>
			<g>
				<path class="st0" d="M40.5,149.6c1,1.9,3.3,2.2,5.2,2.6c2.1,0.5,4.2,0.6,6.2-0.5c2.8-1.6,0.3-5.9-2.5-4.3
					c-0.7,0.4-1.6,0.2-2.3,0c-0.5-0.1-0.9-0.2-1.4-0.4c-0.3-0.1-1.1-0.6-0.8,0C43.3,144.2,39,146.7,40.5,149.6L40.5,149.6z"/>
			</g>
		</g>
		<g>
			<g>
				<path class="st0" d="M56.8,57.5c2.6,2.5,6,3.4,9.5,2.7c3.1-0.7,1.8-5.5-1.3-4.8c-1.7,0.4-3.4-0.2-4.6-1.4
					C58.1,51.7,54.5,55.2,56.8,57.5L56.8,57.5z"/>
			</g>
		</g>
		<g>
			<g>
				<path class="st0" d="M56.5,61.6c2.5,1.5,5.2,2.3,8.1,2.4c3.2,0.1,3.2-4.9,0-5c-2-0.1-3.9-0.7-5.6-1.7
					C56.2,55.5,53.7,59.9,56.5,61.6L56.5,61.6z"/>
			</g>
		</g>
		<g>
			<g>
				<path class="st0" d="M19,84.8c9.6,5.5,20.4,7.3,31.3,7.7c8.4,0.3,20.3,1.7,23.9-7.9c1.1-3-3.7-4.3-4.8-1.3c-2.6,7-18.1,4.5-24,4
					c-8.4-0.7-16.5-2.5-23.8-6.7C18.8,78.9,16.2,83.2,19,84.8L19,84.8z"/>
			</g>
		</g>
		<g>
			<g>
				<path class="st0" d="M21.9,82.4c9.6-0.7,19.3-1.2,28.9-1.6c3.2-0.1,3.2-5.1,0-5c-9.6,0.3-19.3,0.9-28.9,1.6
					C18.7,77.6,18.7,82.6,21.9,82.4L21.9,82.4z"/>
			</g>
		</g>
		<g>
			<g>
				<path class="st0" d="M63.8,81.9c2.3,0.5,4.2,1.6,5.8,3.4c0.9,1,2.6,0.9,3.5,0c1-1,0.9-2.5,0-3.5c-2-2.4-4.9-4.1-8-4.7
					C62,76.4,60.6,81.2,63.8,81.9L63.8,81.9z"/>
			</g>
		</g>
		<g>
			<g>
				<path class="st0" d="M17.2,85.2c7.7,20.7,8.8,42.8,11,64.6c0.3,3.2,5.3,3.2,5,0C30.9,127.6,29.8,105,22,83.9
					C20.9,80.9,16,82.2,17.2,85.2L17.2,85.2z"/>
			</g>
		</g>
		<g>
			<g>
				<path class="st0" d="M69,84.1c-1,10.6-4,21.2-5.8,31.7c-1.9,10.9-3.7,21.8-5.6,32.7c-0.5,3.1,4.3,4.5,4.8,1.3
					c2-11.5,3.9-23,5.9-34.5c1.8-10.4,4.7-20.7,5.7-31.2C74.3,80.9,69.3,80.9,69,84.1L69,84.1z"/>
			</g>
		</g>
		<g>
			<g>
				<path class="st0" d="M30.1,153.5c9.1,1.9,22.7,5.1,30.7-1.2c2.5-2-1-5.5-3.5-3.5c-3.3,2.6-8.5,2-12.4,1.8
					c-4.5-0.2-9-0.9-13.4-1.9C28.3,148,26.9,152.8,30.1,153.5L30.1,153.5z"/>
			</g>
		</g>
		<g>
			<g>
				<path class="st0" d="M32.6,151.9c2.1-1.7,4.7-2.7,7.4-2.8c3.2-0.2,3.2-5.2,0-5c-4.1,0.3-7.7,1.7-10.9,4.3
					C26.5,150.4,30.1,154,32.6,151.9L32.6,151.9z"/>
			</g>
		</g>
		<g>
			<g>
				<path class="st0" d="M59.6,146.9c-2.5-1-5-2-7.4-3c-1.3-0.5-2.7,0.5-3.1,1.7c-0.4,1.4,0.5,2.6,1.7,3.1c2.5,1,5,2,7.4,3
					c1.3,0.5,2.7-0.5,3.1-1.7C61.7,148.6,60.9,147.4,59.6,146.9L59.6,146.9z"/>
			</g>
		</g>
		<g>
			<g>
				<path class="st0" d="M40.3,148.2c0.3,0,0.7,0,1,0c1.3,0,2.6-1.1,2.5-2.5c-0.1-1.4-1.1-2.5-2.5-2.5c-0.3,0-0.7,0-1,0
					c-1.3,0-2.6,1.1-2.5,2.5C37.9,147,38.9,148.2,40.3,148.2L40.3,148.2z"/>
			</g>
		</g>
		<g>
			<g>
				<path class="st0" d="M29,106.9c1.9,0.7,3.7-0.4,5.4-1.2c1.8-0.8,3.6-1.7,5.3-2.8c2.8-1.7,0.2-6-2.5-4.3c-1.2,0.7-2.3,1.4-3.6,2
					c-0.5,0.2-2.8,1.6-3.3,1.4C27.3,101,26,105.8,29,106.9L29,106.9z"/>
			</g>
		</g>
		<g>
			<g>
				<path class="st0" d="M37.4,102.1c1.8,1.9,3.3,3.9,4.7,6.1c1.7,2.7,6,0.2,4.3-2.5c-1.6-2.5-3.4-4.9-5.5-7.1
					C38.7,96.2,35.2,99.8,37.4,102.1L37.4,102.1z"/>
			</g>
		</g>
		<g>
			<g>
				<path class="st0" d="M42.6,107.3c0.3-0.4,0.3-0.5-0.2-0.2c-0.4,0.1-0.9,0.3-1.3,0.4c-0.8,0.3-1.7,0.6-2.5,1
					c-1.7,0.7-3.2,1.6-4.7,2.6c-2.7,1.8-0.2,6.1,2.5,4.3c2.1-1.4,4.3-2.5,6.7-3.3c2-0.6,3.7-1.3,4.4-3.5
					C48.4,105.6,43.5,104.2,42.6,107.3L42.6,107.3z"/>
			</g>
		</g>
		<g>
			<g>
				<path class="st0" d="M27.2,105c-0.6,4.2,3.1,8.8,5.9,11.7c2.2,2.3,5.8-1.2,3.5-3.5c-1.1-1.1-2-2.3-2.8-3.6
					c-0.4-0.6-0.7-1.2-1.1-1.9c-0.2-0.4-0.4-0.7-0.5-1.1c-0.1-0.6-0.2-0.7-0.2-0.2c0.2-1.3-0.3-2.7-1.7-3.1
					C29.1,102.9,27.4,103.7,27.2,105L27.2,105z"/>
			</g>
		</g>
		<g>
			<g>
				<path class="st0" d="M42,109.2c0,2.1,0.5,4,1.4,5.9c0.6,1.2,2.3,1.6,3.4,0.9c1.2-0.7,1.5-2.2,0.9-3.4c-0.6-1.1-0.7-2.1-0.7-3.3
					C47.1,106,42.1,106,42,109.2L42,109.2z"/>
			</g>
		</g>
		<g>
			<g>
				<path class="st0" d="M32,115.3c0,1.3,0.4,2.6,1,3.8c0.6,1.2,2.3,1.6,3.4,0.9c1.2-0.8,1.5-2.2,0.9-3.4c-0.1-0.1-0.1-0.2-0.2-0.3
					c0,0.1,0.1,0.2,0.1,0.3c-0.1-0.1-0.2-0.5-0.2-0.6c0-0.1-0.2-0.7-0.1-0.3c0,0.2,0,0.2,0,0c0-0.1,0-0.2,0-0.3
					c0-1.3-1.1-2.6-2.5-2.5C33.1,112.9,31.9,113.9,32,115.3L32,115.3z"/>
			</g>
		</g>
		<g>
			<g>
				<path class="st0" d="M36.9,121.4c3.1-1.6,6.2-3.2,9.4-4.7c2.9-1.5,0.3-5.8-2.5-4.3c-3.1,1.6-6.2,3.2-9.4,4.7
					C31.5,118.5,34,122.8,36.9,121.4L36.9,121.4z"/>
			</g>
		</g>
		<g>
			<g>
				<path class="st0" d="M26.7,108.2c0.5,1.4,0.8,2.8,1,4.3c0.1,1.2,0,2.4,0.5,3.5c0.9,2,3.6,3.1,5.4,4.3c2.7,1.8,5.2-2.6,2.5-4.3
					c-0.8-0.5-1.6-1-2.4-1.5c-1-0.7-1.1-0.4-1-1.5c0.1-2-0.6-4.2-1.2-6C30.5,103.8,25.7,105.1,26.7,108.2L26.7,108.2z"/>
			</g>
		</g>
		<g>
			<g>
				<path class="st0" d="M33.4,132.1c3-2.2,6.1-4.3,9.2-6.2c2.7-1.7,0.2-6-2.5-4.3c-3.1,2-6.2,4.1-9.2,6.2
					C28.3,129.6,30.8,134,33.4,132.1L33.4,132.1z"/>
			</g>
		</g>
		<g>
			<g>
				<path class="st0" d="M39.8,124.5c0.3,0.6,0.6,1.2,0.9,1.8c0.2,0.5,0.6,1.3,0.7,1.5c0.5,1.2,1.7,2.2,3.1,1.7
					c1.2-0.4,2.3-1.8,1.7-3.1c-0.6-1.5-1.3-3-2.1-4.5c-0.6-1.1-2.3-1.6-3.4-0.9C39.5,121.8,39.1,123.2,39.8,124.5L39.8,124.5z"/>
			</g>
		</g>
		<g>
			<g>
				<path class="st0" d="M28.7,132.2c1.6,2.5,3.1,5,4.3,7.7c0.6,1.2,2.3,1.5,3.4,0.9c1.3-0.7,1.5-2.2,0.9-3.4
					c-1.2-2.7-2.7-5.3-4.3-7.7C31.2,127,26.9,129.5,28.7,132.2L28.7,132.2z"/>
			</g>
		</g>
		<g>
			<g>
				<path class="st0" d="M38.1,141.5c1.8-2,3.8-3.6,6.3-4.7c1.2-0.5,1.5-2.3,0.9-3.4c-0.7-1.3-2.2-1.4-3.4-0.9
					c-2.8,1.2-5.3,3.1-7.3,5.4C32.4,140.4,36,144,38.1,141.5L38.1,141.5z"/>
			</g>
		</g>
		<g>
			<g>
				<path class="st0" d="M41,124.1c1,0.9,2,1.5,3.3,1.9c1.2,0.4,2.8-0.5,3.1-1.7c0.3-1.4-0.4-2.6-1.7-3.1c-0.1,0-0.2-0.1-0.3-0.1
					c0.3,0.2,0.4,0.2,0.2,0.1c-0.1-0.1-0.3-0.1-0.4-0.2c-0.1-0.1-0.3-0.2-0.4-0.3c-0.2-0.2-0.2-0.1,0.1,0.1
					c-0.1-0.1-0.2-0.1-0.2-0.2c-1-0.9-2.6-1-3.5,0C40.1,121.5,40,123.1,41,124.1L41,124.1z"/>
			</g>
		</g>
		<g>
			<g>
				<path class="st0" d="M36.4,143c2.4,0.2,4.7,0.2,7.1,0.1c3.2-0.1,3.2-5.1,0-5c-2.4,0.1-4.8,0.1-7.1-0.1
					C33.1,137.8,33.2,142.8,36.4,143L36.4,143z"/>
			</g>
		</g>
		<g>
			<g>
				<path class="st0" d="M17.1,66.4c7.6-5.5,15.5-10.7,25.2-10.6c3.2,0,3.2-5,0-5c-10.6-0.1-19.4,5.3-27.7,11.3
					C12,64,14.5,68.3,17.1,66.4L17.1,66.4z"/>
			</g>
		</g>
		<g>
			<g>
				<path class="st0" d="M42.3,143c-6.2,0-12.2,1.4-17.8,4.1c-2.9,1.4-0.4,5.7,2.5,4.3c4.8-2.4,9.9-3.5,15.2-3.4
					C45.5,148,45.5,143,42.3,143L42.3,143z"/>
			</g>
		</g>
		<g>
			<g>
				<path class="st0" d="M23.1,151.3c3.9,6.9,14.8,8.5,22,8.9c8.7,0.5,16.7-2.7,22.3-9.4c2.1-2.4-1.5-6-3.5-3.5
					c-4.4,5.2-10.1,7.9-17,8c-5.3,0-16.6-1.3-19.6-6.5C25.8,146,21.5,148.5,23.1,151.3L23.1,151.3z"/>
			</g>
		</g>
		<g>
			<g>
				<path class="st0" d="M66.1,146.2c-3.7-2.8-8.4-3.8-12.9-3.9c-3.2-0.1-3.2,4.9,0,5c3.7,0.1,7.4,1,10.4,3.3
					C66.1,152.5,68.6,148.1,66.1,146.2L66.1,146.2z"/>
			</g>
		</g>
	</g>
</g>
</svg>
