<?xml version="1.0" encoding="utf-8"?>
<!-- Generator: Adobe Illustrator 20.0.0, SVG Export Plug-In . SVG Version: 6.00 Build 0)  -->
<svg version="1.1" id="Layer_1" xmlns="http://www.w3.org/2000/svg" xmlns:xlink="http://www.w3.org/1999/xlink" x="0px" y="0px"
	 viewBox="0 0 88 168" style="enable-background:new 0 0 88 168;" xml:space="preserve">
<style type="text/css">
	.st0{fill:#2e6409;}
</style>
<g>
	<g>
		<g>
			<path class="st0" d="M-315.7,223c2.4,0.7,6.5,0.7,8-1.8c1.7-2.9-0.9-5.6-3.5-6.6c-2.6-1-5.5-0.9-7.4,1.4
				C-320.9,218.8-318.4,221.9-315.7,223c1.2,0.5,2.8-0.6,3.1-1.7c0.4-1.4-0.5-2.6-1.7-3.1c-0.3-0.1-0.1-0.3-0.1-0.1
				c-0.1,0.4-0.2,0.8-0.3,1.3c0.1-0.2,0.2-0.4,0.4-0.4c0.7-0.1,1.4,0.5,2,0.6c0,0,0.3,0.3,0.3,0.3c0.2-0.5,0.3-1,0.5-1.6
				c-0.1,0-0.2,0-0.4,0c-0.8-0.2-1.6,0.1-2.4-0.1C-317.5,217.3-318.8,222.1-315.7,223z"/>
		</g>
	</g>
	<g>
		<g>
			<g>
				<path class="st0" d="M-337.8,250.5c-8.2-0.3-15.5,2.1-23.1,5c-5.7,2.2-11.9,6-12.5,12.8c-0.5,6.1,4.5,10.4,10.1,11.7
					c8.4,2,18.4,0.8,27,0.9c9.4,0.1,35,4.5,34.1-11.7c-0.3-6.7-5.7-11.1-11.4-13.5C-321.1,252.6-329.7,250.7-337.8,250.5
					c-3.2-0.1-3.2,4.9,0,5c5.6,0.1,11,1.3,16.4,2.9c5.1,1.5,12.1,3.4,13.8,9.2c2.2,7.4-5.4,8.6-10.8,8.6c-5.9,0-11.9-0.1-17.8-0.2
					c-5.7-0.1-11.5-0.1-17.2-0.2c-4.9-0.1-16.8,0-14.7-8.2c1.6-6.1,10.5-8,15.7-9.8c4.9-1.7,9.5-2.4,14.6-2.3
					C-334.6,255.6-334.6,250.6-337.8,250.5L-337.8,250.5z"/>
			</g>
		</g>
		<g>
			<g>
				<path class="st0" d="M-373.3,270.6c-1,13.3,3.6,25.6,6.2,38.5c3.1,14.8,4.3,30,8,44.7c0.8,3.1,5.6,1.8,4.8-1.3
					c-3.5-14.1-4.8-28.6-7.6-42.9c-2.6-13-7.4-25.5-6.4-39C-368.1,267.4-373.1,267.4-373.3,270.6L-373.3,270.6z"/>
			</g>
		</g>
		<g>
			<g>
				<path class="st0" d="M-306.8,270.6c-0.9,13.8-2.3,27.4-6,40.8c-3.8,13.7-5.3,27.5-6.1,41.7c-0.2,3.2,4.8,3.2,5,0
					c0.9-15,3-29.2,6.9-43.7c3.4-12.6,4.5-25.7,5.3-38.7C-301.6,267.4-306.6,267.4-306.8,270.6L-306.8,270.6z"/>
			</g>
		</g>
		<g>
			<g>
				<path class="st0" d="M-320.2,218.6c0.4,12.2-2.6,24-5.2,35.8c-2.4,10.8-4.6,21.8-6.5,32.7c-3.8,21.6-6.8,43.3-9.3,65
					c-0.4,3.2,4.6,3.2,5,0c2.7-22.5,5.8-44.9,9.8-67.2c1.9-10.7,4.1-21.4,6.5-32c2.6-11.3,5.2-22.7,4.8-34.4
					C-315.3,215.4-320.3,215.4-320.2,218.6L-320.2,218.6z"/>
			</g>
		</g>
		<g>
			<g>
				<path class="st0" d="M-311.4,220.3c-1.1,22.9-7.2,45-11.6,67.4c-4.2,21.7-7.8,43.5-10.4,65.4c-0.4,3.2,4.6,3.2,5,0
					c2.7-22.7,6.5-45.3,10.9-67.7c4.3-21.6,10-43,11-65.1C-306.2,217.1-311.2,217.1-311.4,220.3L-311.4,220.3z"/>
			</g>
		</g>
		<g>
			<g>
				<path class="st0" d="M-341.6,354c1,1.9,3.3,2.2,5.2,2.6c2.1,0.5,4.2,0.6,6.2-0.5c2.8-1.6,0.3-5.9-2.5-4.3
					c-0.7,0.4-1.6,0.2-2.3,0c-0.5-0.1-0.9-0.2-1.4-0.4c-0.3-0.1-1.1-0.6-0.8,0C-338.8,348.6-343.1,351.2-341.6,354L-341.6,354z"/>
			</g>
		</g>
		<g>
			<g>
				<path class="st0" d="M-325.3,261.9c2.6,2.5,6,3.4,9.5,2.7c3.1-0.7,1.8-5.5-1.3-4.8c-1.7,0.4-3.4-0.2-4.6-1.4
					C-324,256.1-327.6,259.7-325.3,261.9L-325.3,261.9z"/>
			</g>
		</g>
		<g>
			<g>
				<path class="st0" d="M-325.6,266c2.5,1.5,5.2,2.3,8.1,2.4c3.2,0.1,3.2-4.9,0-5c-2-0.1-3.9-0.7-5.6-1.7
					C-325.8,260-328.4,264.3-325.6,266L-325.6,266z"/>
			</g>
		</g>
		<g>
			<g>
				<path class="st0" d="M-363.1,289.2c9.6,5.5,20.4,7.3,31.3,7.7c8.4,0.3,20.3,1.7,23.9-7.9c1.1-3-3.7-4.3-4.8-1.3
					c-2.6,7-18.1,4.5-24,4c-8.4-0.7-16.5-2.5-23.8-6.7C-363.3,283.3-365.9,287.6-363.1,289.2L-363.1,289.2z"/>
			</g>
		</g>
		<g>
			<g>
				<path class="st0" d="M-360.2,286.8c9.6-0.7,19.3-1.2,28.9-1.6c3.2-0.1,3.2-5.1,0-5c-9.6,0.3-19.3,0.9-28.9,1.6
					C-363.4,282-363.4,287-360.2,286.8L-360.2,286.8z"/>
			</g>
		</g>
		<g>
			<g>
				<path class="st0" d="M-318.3,286.3c2.3,0.5,4.2,1.6,5.8,3.4c0.9,1,2.6,0.9,3.5,0c1-1,0.9-2.5,0-3.5c-2-2.4-4.9-4.1-8-4.7
					C-320.1,280.8-321.5,285.6-318.3,286.3L-318.3,286.3z"/>
			</g>
		</g>
		<g>
			<g>
				<path class="st0" d="M-364.9,289.6c7.7,20.7,8.8,42.8,11,64.6c0.3,3.2,5.3,3.2,5,0c-2.2-22.2-3.3-44.8-11.1-65.9
					C-361.2,285.3-366,286.6-364.9,289.6L-364.9,289.6z"/>
			</g>
		</g>
		<g>
			<g>
				<path class="st0" d="M-313.1,288.5c-1,10.6-4,21.2-5.8,31.7c-1.9,10.9-3.7,21.8-5.6,32.7c-0.5,3.1,4.3,4.5,4.8,1.3
					c2-11.5,3.9-23,5.9-34.5c1.8-10.4,4.7-20.7,5.7-31.2C-307.8,285.3-312.8,285.4-313.1,288.5L-313.1,288.5z"/>
			</g>
		</g>
		<g>
			<g>
				<path class="st0" d="M-352,357.9c9.1,1.9,22.7,5.1,30.7-1.2c2.5-2-1-5.5-3.5-3.5c-3.3,2.6-8.5,2-12.4,1.8
					c-4.5-0.2-9-0.9-13.4-1.9C-353.8,352.4-355.2,357.2-352,357.9L-352,357.9z"/>
			</g>
		</g>
		<g>
			<g>
				<path class="st0" d="M-349.5,356.4c2.1-1.7,4.7-2.7,7.4-2.8c3.2-0.2,3.2-5.2,0-5c-4.1,0.3-7.7,1.7-10.9,4.3
					C-355.6,354.9-352,358.4-349.5,356.4L-349.5,356.4z"/>
			</g>
		</g>
		<g>
			<g>
				<path class="st0" d="M-322.5,351.3c-2.5-1-5-2-7.4-3c-1.3-0.5-2.7,0.5-3.1,1.7c-0.4,1.4,0.5,2.6,1.7,3.1c2.5,1,5,2,7.4,3
					c1.3,0.5,2.7-0.5,3.1-1.7C-320.3,353-321.2,351.8-322.5,351.3L-322.5,351.3z"/>
			</g>
		</g>
		<g>
			<g>
				<path class="st0" d="M-341.7,352.6c0.3,0,0.7,0,1,0c1.3,0,2.6-1.1,2.5-2.5c-0.1-1.4-1.1-2.5-2.5-2.5c-0.3,0-0.7,0-1,0
					c-1.3,0-2.6,1.1-2.5,2.5C-344.2,351.5-343.1,352.6-341.7,352.6L-341.7,352.6z"/>
			</g>
		</g>
		<g>
			<g>
				<path class="st0" d="M-353.1,311.3c1.9,0.7,3.7-0.4,5.4-1.2c1.8-0.8,3.6-1.7,5.3-2.8c2.8-1.7,0.2-6-2.5-4.3
					c-1.2,0.7-2.3,1.4-3.6,2c-0.5,0.2-2.8,1.6-3.3,1.4C-354.8,305.4-356.1,310.2-353.1,311.3L-353.1,311.3z"/>
			</g>
		</g>
		<g>
			<g>
				<path class="st0" d="M-344.7,306.6c1.8,1.9,3.3,3.9,4.7,6.1c1.7,2.7,6,0.2,4.3-2.5c-1.6-2.5-3.4-4.9-5.5-7.1
					C-343.4,300.7-346.9,304.2-344.7,306.6L-344.7,306.6z"/>
			</g>
		</g>
		<g>
			<g>
				<path class="st0" d="M-339.5,311.8c0.3-0.4,0.3-0.5-0.2-0.2c-0.4,0.1-0.9,0.3-1.3,0.4c-0.8,0.3-1.7,0.6-2.5,1
					c-1.7,0.7-3.2,1.6-4.7,2.6c-2.7,1.8-0.2,6.1,2.5,4.3c2.1-1.4,4.3-2.5,6.7-3.3c2-0.6,3.7-1.3,4.4-3.5
					C-333.7,310-338.6,308.7-339.5,311.8L-339.5,311.8z"/>
			</g>
		</g>
		<g>
			<g>
				<path class="st0" d="M-354.9,309.4c-0.6,4.2,3.1,8.8,5.9,11.7c2.2,2.3,5.8-1.2,3.5-3.5c-1.1-1.1-2-2.3-2.8-3.6
					c-0.4-0.6-0.7-1.2-1.1-1.9c-0.2-0.4-0.4-0.7-0.5-1.1c-0.1-0.6-0.2-0.7-0.2-0.2c0.2-1.3-0.3-2.7-1.7-3.1
					C-352.9,307.3-354.7,308.1-354.9,309.4L-354.9,309.4z"/>
			</g>
		</g>
		<g>
			<g>
				<path class="st0" d="M-340.1,313.7c0,2.1,0.5,4,1.4,5.9c0.6,1.2,2.3,1.6,3.4,0.9c1.2-0.7,1.5-2.2,0.9-3.4
					c-0.6-1.1-0.7-2.1-0.7-3.3C-335,310.4-340,310.4-340.1,313.7L-340.1,313.7z"/>
			</g>
		</g>
		<g>
			<g>
				<path class="st0" d="M-350.1,319.7c0,1.3,0.4,2.6,1,3.8c0.6,1.2,2.3,1.6,3.4,0.9c1.2-0.8,1.5-2.2,0.9-3.4
					c-0.1-0.1-0.1-0.2-0.2-0.3c0,0.1,0.1,0.2,0.1,0.3c-0.1-0.1-0.2-0.5-0.2-0.6c0-0.1-0.2-0.7-0.1-0.3c0,0.2,0,0.2,0,0
					c0-0.1,0-0.2,0-0.3c0-1.3-1.1-2.6-2.5-2.5C-348.9,317.3-350.2,318.3-350.1,319.7L-350.1,319.7z"/>
			</g>
		</g>
		<g>
			<g>
				<path class="st0" d="M-345.2,325.8c3.1-1.6,6.2-3.2,9.4-4.7c2.9-1.5,0.3-5.8-2.5-4.3c-3.1,1.6-6.2,3.2-9.4,4.7
					C-350.6,322.9-348.1,327.2-345.2,325.8L-345.2,325.8z"/>
			</g>
		</g>
		<g>
			<g>
				<path class="st0" d="M-355.4,312.6c0.5,1.4,0.8,2.8,1,4.3c0.1,1.2,0,2.4,0.5,3.5c0.9,2,3.6,3.1,5.4,4.3c2.7,1.8,5.2-2.6,2.5-4.3
					c-0.8-0.5-1.6-1-2.4-1.5c-1-0.7-1.1-0.4-1-1.5c0.1-2-0.6-4.2-1.2-6C-351.6,308.3-356.4,309.6-355.4,312.6L-355.4,312.6z"/>
			</g>
		</g>
		<g>
			<g>
				<path class="st0" d="M-348.7,336.5c3-2.2,6.1-4.3,9.2-6.2c2.7-1.7,0.2-6-2.5-4.3c-3.1,2-6.2,4.1-9.2,6.2
					C-353.8,334.1-351.3,338.4-348.7,336.5L-348.7,336.5z"/>
			</g>
		</g>
		<g>
			<g>
				<path class="st0" d="M-342.3,328.9c0.3,0.6,0.6,1.2,0.9,1.8c0.2,0.5,0.6,1.3,0.7,1.5c0.5,1.2,1.7,2.2,3.1,1.7
					c1.2-0.4,2.3-1.8,1.7-3.1c-0.6-1.5-1.3-3-2.1-4.5c-0.6-1.1-2.3-1.6-3.4-0.9C-342.6,326.2-343,327.7-342.3,328.9L-342.3,328.9z"
					/>
			</g>
		</g>
		<g>
			<g>
				<path class="st0" d="M-353.4,336.6c1.6,2.5,3.1,5,4.3,7.7c0.6,1.2,2.3,1.5,3.4,0.9c1.3-0.7,1.5-2.2,0.9-3.4
					c-1.2-2.7-2.7-5.3-4.3-7.7C-350.8,331.4-355.2,333.9-353.4,336.6L-353.4,336.6z"/>
			</g>
		</g>
		<g>
			<g>
				<path class="st0" d="M-344,345.9c1.8-2,3.8-3.6,6.3-4.7c1.2-0.5,1.5-2.3,0.9-3.4c-0.7-1.3-2.2-1.4-3.4-0.9
					c-2.8,1.2-5.3,3.1-7.3,5.4C-349.6,344.8-346.1,348.4-344,345.9L-344,345.9z"/>
			</g>
		</g>
		<g>
			<g>
				<path class="st0" d="M-341.1,328.5c1,0.9,2,1.5,3.3,1.9c1.2,0.4,2.8-0.5,3.1-1.7c0.3-1.4-0.4-2.6-1.7-3.1
					c-0.1,0-0.2-0.1-0.3-0.1c0.3,0.2,0.4,0.2,0.2,0.1c-0.1-0.1-0.3-0.1-0.4-0.2c-0.1-0.1-0.3-0.2-0.4-0.3c-0.2-0.2-0.2-0.1,0.1,0.1
					c-0.1-0.1-0.2-0.1-0.2-0.2c-1-0.9-2.6-1-3.5,0C-342,325.9-342.1,327.6-341.1,328.5L-341.1,328.5z"/>
			</g>
		</g>
		<g>
			<g>
				<path class="st0" d="M-345.7,347.5c2.4,0.2,4.7,0.2,7.1,0.1c3.2-0.1,3.2-5.1,0-5c-2.4,0.1-4.8,0.1-7.1-0.1
					C-348.9,342.2-348.9,347.2-345.7,347.5L-345.7,347.5z"/>
			</g>
		</g>
		<g>
			<g>
				<path class="st0" d="M-365,270.9c7.6-5.5,15.5-10.7,25.2-10.6c3.2,0,3.2-5,0-5c-10.6-0.1-19.4,5.3-27.7,11.3
					C-370.1,268.4-367.6,272.7-365,270.9L-365,270.9z"/>
			</g>
		</g>
		<g>
			<g>
				<path class="st0" d="M-339.8,347.4c-6.2,0-12.2,1.4-17.8,4.1c-2.9,1.4-0.4,5.7,2.5,4.3c4.8-2.4,9.9-3.5,15.2-3.4
					C-336.6,352.4-336.6,347.4-339.8,347.4L-339.8,347.4z"/>
			</g>
		</g>
		<g>
			<g>
				<path class="st0" d="M-359,355.7c3.9,6.9,14.8,8.5,22,8.9c8.7,0.5,16.7-2.7,22.3-9.4c2.1-2.4-1.5-6-3.5-3.5
					c-4.4,5.2-10.1,7.9-17,8c-5.3,0-16.6-1.3-19.6-6.5C-356.2,350.4-360.6,352.9-359,355.7L-359,355.7z"/>
			</g>
		</g>
		<g>
			<g>
				<path class="st0" d="M-316,350.6c-3.7-2.8-8.4-3.8-12.9-3.9c-3.2-0.1-3.2,4.9,0,5c3.7,0.1,7.4,1,10.4,3.3
					C-316,356.9-313.5,352.6-316,350.6L-316,350.6z"/>
			</g>
		</g>
	</g>
</g>
<g>
	<g>
		<g>
			<path class="st0" d="M-379.4,508.3c3.7,6.9,7.6,14.1,13.7,19.3c6.3,5.4,13.7,7,21.9,7c7.9,0,15.2-0.6,21.3-6.1
				c6.5-5.9,9.3-14.5,11.9-22.6c1-3.1-3.9-4.4-4.8-1.3c-2.1,6.8-4.3,14.1-9.5,19.4c-5.6,5.8-13.1,5.9-20.7,5.7
				c-15.5-0.3-22.9-11.3-29.5-23.8C-376.6,502.9-380.9,505.5-379.4,508.3L-379.4,508.3z"/>
		</g>
	</g>
	<g>
		<g>
			<path class="st0" d="M-377.2,507.1c21,0,42,0,63,0c3.2,0,3.2-5,0-5c-21,0-42,0-63,0C-380.4,502.1-380.4,507.1-377.2,507.1
				L-377.2,507.1z"/>
		</g>
	</g>
	<g>
		<g>
			<path class="st0" d="M-345.2,532.5c0,7.9,0,15.8,0,23.8c0,3.2,5,3.2,5,0c0-7.9,0-15.8,0-23.8
				C-340.2,529.3-345.2,529.3-345.2,532.5L-345.2,532.5z"/>
		</g>
	</g>
	<g>
		<g>
			<path class="st0" d="M-351.2,564.7c5.7-3.8,12.7-4.1,18.6-0.5c2.8,1.7,5.3-2.7,2.5-4.3c-7.4-4.4-16.5-4.3-23.7,0.5
				C-356.3,562.2-353.8,566.5-351.2,564.7L-351.2,564.7z"/>
		</g>
	</g>
	<g>
		<g>
			<path class="st0" d="M-351.3,565.6c6.7,0,13.5,0,20.2,0c3.2,0,3.2-5,0-5c-6.7,0-13.5,0-20.2,0
				C-354.5,560.6-354.5,565.6-351.3,565.6L-351.3,565.6z"/>
		</g>
	</g>
	<g>
		<g>
			<path class="st0" d="M-376,502.3c-0.3-8.6,10.8-12.9,17.9-11.3c6.7,1.5,11.9,6.5,16.8,11c2.4,2.2,5.9-1.3,3.5-3.5
				c-7.1-6.6-15.3-13.7-25.6-12.8c-8.4,0.7-17.9,7.4-17.6,16.6C-380.9,505.5-375.9,505.5-376,502.3L-376,502.3z"/>
		</g>
	</g>
	<g>
		<g>
			<path class="st0" d="M-353.1,489.2c2.2-2.2,8.6-1.8,11.6-1.9c3.5-0.1,7.2-0.2,10.5,0.9c5.7,1.8,12.6,9.3,14.2,15
				c0.9,3.1,5.7,1.8,4.8-1.3c-2.2-7.5-10.2-16.1-17.7-18.4c-4.6-1.4-9.8-1.3-14.5-1c-4,0.3-9.5,0.2-12.5,3.2
				C-358.9,487.9-355.4,491.4-353.1,489.2L-353.1,489.2z"/>
		</g>
	</g>
	<g>
		<g>
			<path class="st0" d="M-368.1,488.1c2-14.4,24.9-19.8,33.1-7.7c1.8,2.7,6.1,0.2,4.3-2.5c-10.3-15.3-39.5-10.2-42.2,8.9
				C-373.4,489.9-368.6,491.3-368.1,488.1L-368.1,488.1z"/>
		</g>
	</g>
	<g>
		<g>
			<path class="st0" d="M-319,446.9c-3.2,12.5-6.5,25-9.7,37.5c-0.8,3.1,4,4.4,4.8,1.3c3.2-12.5,6.5-25,9.7-37.5
				C-313.3,445.1-318.2,443.8-319,446.9L-319,446.9z"/>
		</g>
	</g>
	<g>
		<g>
			<path class="st0" d="M-317.3,448.3c5,4,10,7.9,15,11.9c2.5,2,6.1-1.5,3.5-3.5c-5-4-10-7.9-15-11.9
				C-316.3,442.8-319.9,446.3-317.3,448.3L-317.3,448.3z"/>
		</g>
	</g>
	<g>
		<g>
			<path class="st0" d="M-298.3,458.3c-0.1,0-0.2-0.1-0.3-0.1c-0.9-0.3-1.8,0.1-2.4,0.6c-1.6,1.5-2.4,4.1-3.4,6.1
				c-1.6,3.2-3.2,6.4-4.9,9.5c-3.2,6-6.4,12-9.7,18c-1.6,2.8,2.7,5.3,4.3,2.5c3-5.4,6-10.8,8.8-16.2c1.4-2.6,2.7-5.2,4-7.8
				c1.2-2.4,2.4-6.7,4.4-8.5c-0.8,0.2-1.6,0.4-2.4,0.6c0.1,0,0.2,0.1,0.3,0.1C-296.6,464.2-295.3,459.4-298.3,458.3L-298.3,458.3z"
				/>
		</g>
	</g>
	<g>
		<g>
			<path class="st0" d="M-317.3,463.5c3-1.2,6.1-2.4,9.1-3.6c1.3-0.5,2.1-1.7,1.7-3.1c-0.3-1.2-1.8-2.2-3.1-1.7
				c-3,1.2-6.1,2.4-9.1,3.6c-1.3,0.5-2.1,1.7-1.7,3.1C-320.1,462.9-318.6,464-317.3,463.5L-317.3,463.5z"/>
		</g>
	</g>
	<g>
		<g>
			<path class="st0" d="M-319.1,470.4c4.6-1.9,9.3-3.8,13.9-5.7c2.9-1.2,1.7-6-1.3-4.8c-4.6,1.9-9.3,3.8-13.9,5.7
				C-323.4,466.7-322.1,471.6-319.1,470.4L-319.1,470.4z"/>
		</g>
	</g>
	<g>
		<g>
			<path class="st0" d="M-321.3,478.6c5.3-2.1,10.5-4.3,15.6-6.8c2.9-1.4,0.4-5.7-2.5-4.3c-4.7,2.3-9.5,4.4-14.4,6.3
				C-325.6,475-324.3,479.8-321.3,478.6L-321.3,478.6z"/>
		</g>
	</g>
	<g>
		<g>
			<path class="st0" d="M-321.1,484.8c3.5-1.9,7.2-3.5,11.1-4.6c3.1-0.9,1.8-5.8-1.3-4.8c-4.3,1.3-8.4,3-12.3,5.1
				C-326.5,482-324,486.3-321.1,484.8L-321.1,484.8z"/>
		</g>
	</g>
	<g>
		<g>
			<path class="st0" d="M-366.4,517.9c3.6,4.5,8.5,7.7,14.1,9.3c3.1,0.9,4.4-3.9,1.3-4.8c-4.8-1.4-8.8-4.1-11.9-8
				C-364.9,511.8-368.5,515.4-366.4,517.9L-366.4,517.9z"/>
		</g>
	</g>
</g>
<g>
	<g>
		<path class="st0" d="M369.5,150.3c1.6,0,1.6-2.5,0-2.5C367.9,147.8,367.9,150.3,369.5,150.3L369.5,150.3z"/>
	</g>
</g>
<g>
	<g>
		<path class="st0" d="M376,147c1.6,0,1.6-2.5,0-2.5C374.4,144.5,374.4,147,376,147L376,147z"/>
	</g>
</g>
<g>
	<g>
		<path class="st0" d="M385,147.5c1.6,0,1.6-2.5,0-2.5C383.4,145,383.4,147.5,385,147.5L385,147.5z"/>
	</g>
</g>
<g>
	<g>
		<path class="st0" d="M363,164.8c1.6,0,1.6-2.5,0-2.5C361.4,162.3,361.4,164.8,363,164.8L363,164.8z"/>
	</g>
</g>
<g>
	<g>
		<path class="st0" d="M370.5,164.3c1.6,0,1.6-2.5,0-2.5C368.9,161.8,368.9,164.3,370.5,164.3L370.5,164.3z"/>
	</g>
</g>
<g>
	<g>
		<path class="st0" d="M390.8,158c1.6,0,1.6-2.5,0-2.5C389.1,155.5,389.1,158,390.8,158L390.8,158z"/>
	</g>
</g>
<g>
	<g>
		<path class="st0" d="M402.5,161c1.6,0,1.6-2.5,0-2.5C400.9,158.5,400.9,161,402.5,161L402.5,161z"/>
	</g>
</g>
<g>
	<g>
		<g>
			<path class="st0" d="M16,63.7c-9.2,9.6-13.1,23.9-13.9,37c-0.7,13.1,3,23.9,13.7,32c10.6,8,24.7,12,37.8,8.6
				c12.6-3.3,22-13.1,25.9-25.4c4.9-15.2,2.8-36.2-7.4-48.9c-2-2.5-5.5,1-3.5,3.5c10,12.5,11.1,35.4,4,49.4
				c-6.9,13.6-21.9,20.2-36.7,16.8C22.1,133.4,8.6,123.8,7.2,109C5.9,95,9.6,77.6,19.5,67.2C21.8,64.9,18.2,61.4,16,63.7L16,63.7z"
				/>
		</g>
	</g>
	<g>
		<g>
			<path class="st0" d="M29.5,51.1c-4.2-2.3-9.1-3.7-12.8-6.9c-0.8,1.4-1.6,2.8-2.4,4.2c4.2,0.9,8.9,1.3,12.7,3.3
				c1.8,0.9,4.5-0.6,3.7-2.8c-1.3-3.4-3.6-6.1-5.9-8.9c-0.8,1.4-1.6,2.8-2.4,4.2c5.3,1.3,10.5,4.5,14.6,8c1.7,1.5,5,0.1,4.2-2.4
				c-1.4-4.3-2.6-8.7-3.7-13.1c-1.2,0.9-2.4,1.9-3.7,2.8c4.2,2.4,7.6,5.9,11,9.2c0.6,0.6,1.6,1,2.4,0.6c4.7-1.9,8.6-4.9,12.6-8.1
				c-1.4-0.8-2.8-1.6-4.2-2.4c-0.7,3.6-1.3,7-3.4,10.1c-1.3,1.8,0.8,4.3,2.8,3.7c7.9-2.3,15.8-4.4,24.1-4.3
				c-0.4-1.6-0.8-3.1-1.3-4.7c-5.1,3.8-11.7,5.9-17.8,7.6c-2.8,0.8-2.1,4.7,0.7,4.9c8.3,0.6,15.9,2.1,23.6,5.1c0-1.6,0-3.2,0-4.8
				c-5.6,2.1-12.2-0.7-18-0.6c-2.2,0-3.3,2.7-1.8,4.3c3,3,6.6,5.7,7.8,9.9c1-1,2.1-2.1,3.1-3.1c-5.6-1.3-9.9-5.6-15.1-7.9
				c-2.2-1-4.7,1.1-3.4,3.4c1.2,2.3,1.9,4.6,2.4,7.2c1.5-0.6,3-1.3,4.6-1.9c-2.2-3.2-3.6-6.7-6.6-9.2c-1.7-1.4-4.1-0.5-4.3,1.8
				c-0.4,4.3,0.8,8.6,0.1,12.9c1.6,0,3.2,0,4.8,0c-0.8-5.8-2.1-12.3-6.8-16.2c-1.3-1-3.8-0.9-4.2,1.1c-0.6,3.6,1.1,9.5-1.3,12.5
				c1.4,0.4,2.8,0.7,4.2,1.1c-1.4-4.5-1.5-13.9-8.1-13.9c-7.1,0.1-10.7,9.8-12.4,15.3c1.6,0,3.2,0,4.8,0c-1.1-4.8-2.4-8.8,1.9-12.3
				c1.7-1.4,0.3-4.3-1.8-4.3c-6.5,0.2-10.1,5.4-15.9,7.3c1,0.6,2.1,1.2,3.1,1.7c-0.6-3.1,2.8-4.9,5-5.9c2.6-1.1,0.7-5.3-1.9-4.6
				C19.6,56.6,13,54.9,8,54.2c0,1.6,0,3.2,0,4.8c6.6-1.3,13.4-2.8,20.2-3.2c3.2-0.2,3.2-5.2,0-5c-7.2,0.4-14.4,2-21.5,3.4
				c-2.3,0.5-2.4,4.5,0,4.8c5.9,0.9,13.3,2.7,19.2,1.1c-0.6-1.5-1.3-3-1.9-4.6c-4.8,2.1-8.4,6.1-7.3,11.5c0.2,1.3,1.9,2.1,3.1,1.7
				c5.1-1.7,9.1-7,14.6-7.1c-0.6-1.4-1.2-2.8-1.8-4.3c-5.8,4.7-4.6,10.6-3.1,17.2c0.6,2.5,4.1,2.3,4.8,0c0.7-2.4,3.8-12.1,7.4-11.6
				c2.3,0.4,2.9,8.3,3.4,10.1c0.5,1.6,2.9,2.6,4.2,1.1c3.7-4.6,1.7-9.4,2.6-14.7c-1.4,0.4-2.8,0.7-4.2,1.1c4.1,3.3,4.8,9.1,5.6,14
				c0.3,2.4,4.5,2.4,4.8,0c0.7-4.8-0.3-9.5,0.1-14.3c-1.4,0.6-2.8,1.2-4.3,1.8c2.7,2.2,3.9,5.4,5.8,8.2c1.7,2.4,5,0.9,4.6-1.9
				c-0.5-3-1.4-5.7-2.9-8.4c-1.1,1.1-2.3,2.3-3.4,3.4c5.6,2.4,10.2,7,16.3,8.4c1.8,0.4,3.6-1.2,3.1-3.1c-1.5-5.2-5.5-8.4-9.1-12.1
				c-0.6,1.4-1.2,2.8-1.8,4.3c6.3-0.1,13.1,2.8,19.3,0.4c2.4-0.9,2.3-3.9,0-4.8c-8.2-3.2-16.2-4.6-25-5.3c0.2,1.6,0.4,3.3,0.7,4.9
				c6.4-1.8,13.6-4,19-8.1c1.9-1.4,1.4-4.6-1.3-4.7c-8.7-0.1-17.1,2-25.4,4.4c0.9,1.2,1.9,2.4,2.8,3.7c2.3-3.4,3.1-7.3,3.9-11.3
				c0.5-2.5-2.2-4-4.2-2.4c-3.2,2.6-6.5,5.3-10.4,6.9c0.8,0.2,1.6,0.4,2.4,0.6c-3.8-3.6-7.5-7.4-12-10c-1.9-1.1-4.2,0.7-3.7,2.8
				c1.1,4.4,2.3,8.8,3.7,13.1c1.4-0.8,2.8-1.6,4.2-2.4c-4.7-4.2-10.6-7.8-16.8-9.3c-2.6-0.6-4,2.3-2.4,4.2c1.7,2.1,3.6,4.1,4.6,6.7
				c1.2-0.9,2.4-1.9,3.7-2.8c-4.3-2.3-9.2-2.8-13.9-3.8c-2.3-0.5-4.5,2.4-2.4,4.2c4.1,3.6,9.2,5.1,13.8,7.7
				C29.8,57,32.3,52.7,29.5,51.1L29.5,51.1z"/>
		</g>
	</g>
	<g>
		<g>
			<path class="st0" d="M9.7,83.7c9.8-8.7,22.9-12.9,35.1-17c3-1,1.7-5.9-1.3-4.8c-13.1,4.4-26.8,9-37.3,18.3
				C3.8,82.3,7.3,85.9,9.7,83.7L9.7,83.7z"/>
		</g>
	</g>
	<g>
		<g>
			<path class="st0" d="M7.8,94.5c15.7-7.3,30.5-16.4,46.4-23.2c3-1.3,0.4-5.6-2.5-4.3C35.8,73.8,21,82.9,5.3,90.2
				C2.4,91.6,4.9,95.9,7.8,94.5L7.8,94.5z"/>
		</g>
	</g>
	<g>
		<g>
			<path class="st0" d="M8.3,104.7c4.9-3.1,10.2-5.3,15.3-7.8c5.1-2.5,9.9-5.8,15.1-8.2c5-2.4,10.2-4.6,15.2-7.1
				c5.7-2.8,10.7-6.8,16.8-8.7c3.1-1,1.7-5.8-1.3-4.8c-5.4,1.7-9.9,5-14.9,7.7C49,78.6,43.3,81,37.7,83.6c-5.2,2.4-10,5.5-15.1,8.2
				C17,94.7,11.1,97,5.7,100.4C3,102.1,5.5,106.4,8.3,104.7L8.3,104.7z"/>
		</g>
	</g>
	<g>
		<g>
			<path class="st0" d="M7.9,118.3c11.5-6.9,23.2-13.2,34.9-19.8c10.7-6,21-13.5,33.3-15.9c3.2-0.6,1.8-5.4-1.3-4.8
				c-12.2,2.3-22.5,9.6-33.2,15.6c-12.1,6.9-24.3,13.4-36.3,20.5C2.6,115.6,5.2,119.9,7.9,118.3L7.9,118.3z"/>
		</g>
	</g>
	<g>
		<g>
			<path class="st0" d="M14.5,128.7c11.2-5.8,21.7-12.9,32.6-19.2c10.2-5.9,20.2-12.7,31.7-15.9c3.1-0.8,1.8-5.7-1.3-4.8
				c-11.4,3.1-21.4,9.7-31.5,15.6c-11.4,6.6-22.3,13.9-34,20C9.1,125.9,11.6,130.2,14.5,128.7L14.5,128.7z"/>
		</g>
	</g>
	<g>
		<g>
			<path class="st0" d="M28.8,136.8c15.7-10.9,32-22.3,49.8-29.6c2.9-1.2,1.7-6-1.3-4.8c-18.2,7.4-34.9,18.9-51,30.1
				C23.7,134.3,26.2,138.7,28.8,136.8L28.8,136.8z"/>
		</g>
	</g>
	<g>
		<g>
			<path class="st0" d="M46.3,139c4.4-4.3,10.1-6.9,15.3-10.2c5-3.1,9.8-6.1,15.2-8.5c2.9-1.3,0.4-5.6-2.5-4.3
				c-5.8,2.6-11,5.9-16.4,9.2c-5.2,3.2-10.7,5.9-15.1,10.2C40.4,137.7,44,141.3,46.3,139L46.3,139z"/>
		</g>
	</g>
	<g>
		<g>
			<path class="st0" d="M4.8,104.1c8.9,12,17.2,24.3,26.3,36.1c2,2.5,5.5-1,3.5-3.5c-8.9-11.4-16.9-23.4-25.5-35.1
				C7.3,99,2.9,101.5,4.8,104.1L4.8,104.1z"/>
		</g>
	</g>
	<g>
		<g>
			<path class="st0" d="M6.2,90.4c6.6,6.6,12.4,14.9,17.7,22.5c6.4,9.3,13.3,18.3,20.5,27c2.1,2.5,5.6-1.1,3.5-3.5
				c-7.7-9.3-14.6-19-21.6-28.8c-5.1-7-10.4-14.6-16.5-20.7C7.5,84.6,3.9,88.1,6.2,90.4L6.2,90.4z"/>
		</g>
	</g>
	<g>
		<g>
			<path class="st0" d="M10.3,77.8c8.7,9.6,16.8,19.7,24.7,30c7.6,9.9,16.9,18.3,24.7,28.1c2,2.5,5.5-1,3.5-3.5
				c-8.1-10.2-17.7-19-25.6-29.3C30,93.1,22.2,83.5,13.9,74.3C11.7,71.9,8.2,75.4,10.3,77.8L10.3,77.8z"/>
		</g>
	</g>
	<g>
		<g>
			<path class="st0" d="M15.9,67.4c3.9,5.1,8.7,9.4,12.8,14.4c4.6,5.7,8.7,11.9,13.4,17.6c8.4,10.2,17.5,19.8,25.8,30.1
				c2,2.5,5.6-1.1,3.5-3.5c-8-9.9-16.7-19.1-24.8-28.9c-4.5-5.4-8.5-11.2-12.8-16.8c-4.2-5.4-9.4-9.9-13.6-15.4
				C18.3,62.4,13.9,64.8,15.9,67.4L15.9,67.4z"/>
		</g>
	</g>
	<g>
		<g>
			<path class="st0" d="M34.2,67c12.3,17.9,27.3,33.8,40.8,50.8c2,2.5,5.5-1,3.5-3.5c-13.2-16.6-28-32.3-40-49.8
				C36.7,61.8,32.4,64.3,34.2,67L34.2,67z"/>
		</g>
	</g>
	<g>
		<g>
			<path class="st0" d="M50.7,67.1c7.5,12.8,17.3,24.3,26.1,36.2c1.9,2.6,6.2,0.1,4.3-2.5c-8.8-11.9-18.6-23.4-26.1-36.2
				C53.4,61.8,49.1,64.3,50.7,67.1L50.7,67.1z"/>
		</g>
	</g>
	<g>
		<g>
			<path class="st0" d="M41.5,56.3c2.2-0.7,4.5-0.5,6.8-0.5c0-1.7,0-3.3,0-5c-2.6,0-5.2-0.1-7.7,0.7c-2.3,0.7-2.5,4.2,0,4.8
				c4,1,8.1,1.1,12.2,1c3.2-0.1,3.2-4.9,0-5c-2.3-0.1-4.6-0.5-6.8-0.8c0.2,1.5,0.4,3,0.6,4.6c1.1-0.5,2.6-0.3,3.8-0.2
				c0-1.7,0-3.3,0-5c-0.6,0-1.2,0-1.8,0c-3.2,0-3.2,5,0,5c0.6,0,1.2,0,1.8,0c3.2,0,3.2-4.9,0-5c-2.3,0-4.2,0-6.3,0.9
				c-1.8,0.9-1.5,4.3,0.6,4.6c2.7,0.4,5.4,0.9,8.2,1c0-1.7,0-3.3,0-5c-3.7,0.1-7.3,0.1-10.9-0.8c0,1.6,0,3.2,0,4.8
				c2.1-0.6,4.2-0.5,6.3-0.5c3.2,0,3.2-5,0-5c-2.8,0-5.5-0.2-8.2,0.7C37.1,52.5,38.4,57.3,41.5,56.3L41.5,56.3z"/>
		</g>
	</g>
</g>
</svg>
